<?xml version="1.0" standalone="no"?>
<!DOCTYPE svg PUBLIC "-//W3C//DTD SVG 20010904//EN"
 "http://www.w3.org/TR/2001/REC-SVG-20010904/DTD/svg10.dtd">
<svg version="1.0" xmlns="http://www.w3.org/2000/svg"
 width="3840.000000pt" height="2160.000000pt" viewBox="0 0 3840.000000 2160.000000"
 preserveAspectRatio="xMidYMid meet">
<metadata>
Created by potrace 1.16, written by Peter Selinger 2001-2019
</metadata>
<g transform="translate(0.000000,2160.000000) scale(0.100000,-0.100000)"
fill="#000000" stroke="none">
<path d="M20035 17889 c-1028 -4 -3095 -13 -4593 -19 -2625 -10 -2726 -11
-2777 -29 -30 -11 -73 -22 -97 -26 -92 -16 -165 -70 -210 -155 -23 -44 -23
-52 -30 -445 -4 -220 -12 -1147 -18 -2060 -11 -1738 -21 -3192 -41 -5880 -7
-885 -12 -1936 -13 -2335 l-1 -725 23 -45 c32 -61 78 -107 132 -133 l45 -22
5935 0 5935 0 46 22 c82 39 132 102 159 197 14 50 13 252 -20 4601 -5 704 -14
1982 -20 2840 -20 2945 -30 3973 -41 4007 -29 92 -80 153 -158 191 l-46 22
-1170 1 c-643 0 -2011 -3 -3040 -7z m3889 -527 c5 -9 12 -778 26 -2842 6 -806
15 -2084 20 -2840 5 -756 14 -2063 19 -2905 6 -841 11 -1687 13 -1880 l3 -350
-5604 -3 c-3083 -1 -5608 1 -5612 5 -4 5 -4 433 1 953 5 520 11 1366 15 1880
3 514 10 1543 15 2285 6 743 14 2000 20 2795 15 2227 21 2854 28 2861 4 4
1539 12 3412 19 1873 6 4166 15 5095 19 930 4 1882 8 2117 9 235 1 429 -1 432
-6z"/>
</g>
</svg>
