<?xml version="1.0" standalone="no"?>
<!DOCTYPE svg PUBLIC "-//W3C//DTD SVG 20010904//EN"
 "http://www.w3.org/TR/2001/REC-SVG-20010904/DTD/svg10.dtd">
<svg version="1.0" xmlns="http://www.w3.org/2000/svg"
 width="3840.000000pt" height="2160.000000pt" viewBox="0 0 3840.000000 2160.000000"
 preserveAspectRatio="xMidYMid meet">
<metadata>
Created by potrace 1.16, written by Peter Selinger 2001-2019
</metadata>
<g transform="translate(0.000000,2160.000000) scale(0.100000,-0.100000)"
fill="#000000" stroke="none">
<path d="M23770 16851 c-86 -28 -133 -68 -170 -141 -46 -90 -41 -135 45 -430
42 -146 81 -278 85 -295 5 -16 18 -61 30 -100 20 -66 29 -95 46 -155 19 -70
311 -1079 328 -1135 8 -27 26 -90 39 -140 14 -49 57 -200 97 -335 87 -293 172
-594 304 -1075 26 -93 54 -192 61 -220 45 -156 141 -497 169 -605 19 -69 61
-224 94 -345 33 -121 73 -265 87 -320 25 -95 39 -148 85 -319 166 -622 239
-999 270 -1386 48 -620 72 -798 160 -1220 113 -535 134 -772 170 -1910 11
-348 26 -617 41 -770 6 -58 13 -248 16 -424 5 -344 3 -370 -46 -441 -38 -57
-190 -176 -296 -232 -49 -26 -105 -61 -123 -77 -87 -76 -114 -219 -60 -321 50
-96 124 -139 239 -140 71 0 82 3 171 48 97 49 154 87 322 216 116 88 146 123
211 237 107 188 116 227 122 514 5 234 -3 425 -31 760 -8 96 -20 312 -26 480
-6 168 -15 429 -20 580 -23 616 -57 1045 -100 1265 -6 28 -19 95 -30 150 -10
55 -32 161 -49 235 -62 289 -100 570 -126 945 -29 414 -94 833 -179 1165 -13
52 -42 165 -64 250 -22 85 -49 189 -60 230 -20 72 -41 152 -98 368 -14 53 -54
201 -89 327 -35 127 -76 275 -90 330 -29 108 -135 487 -161 574 -9 29 -27 97
-40 150 -14 53 -40 148 -59 211 -18 63 -50 174 -69 245 -65 237 -136 489 -166
585 -32 106 -106 362 -176 605 -58 205 -332 1157 -373 1295 -16 58 -60 211
-96 340 -88 312 -111 357 -209 407 -53 27 -143 39 -186 24z"/>
<path d="M9570 15891 c-84 -27 -134 -68 -168 -136 -38 -77 -37 -73 -102 -515
-10 -69 -27 -179 -38 -245 -12 -66 -28 -169 -37 -230 -9 -60 -30 -189 -45
-285 -28 -167 -37 -224 -80 -510 -11 -69 -28 -171 -39 -227 -71 -355 -106
-636 -175 -1373 -20 -206 -40 -423 -46 -482 -35 -366 -61 -677 -119 -1408 -51
-640 -51 -673 -34 -2005 11 -829 10 -816 63 -997 38 -129 113 -328 175 -464
13 -28 59 -132 103 -230 44 -99 110 -241 146 -317 36 -76 66 -140 66 -142 0
-4 44 -96 201 -420 92 -191 249 -452 432 -717 278 -403 404 -571 513 -687 44
-46 88 -98 100 -117 32 -53 55 -74 109 -102 68 -36 169 -37 235 -3 61 32 87
57 118 116 23 42 27 63 27 135 0 119 -25 167 -164 312 -164 171 -247 279 -526
693 -187 276 -292 456 -416 711 -49 101 -89 186 -89 188 0 2 -32 70 -71 152
-39 82 -88 187 -109 234 -21 47 -58 128 -83 180 -144 304 -221 500 -269 685
-20 76 -21 118 -31 885 -14 1150 -13 1232 33 1815 52 653 72 888 90 1085 29
325 38 420 66 725 14 154 29 321 35 370 5 50 14 135 20 190 28 288 72 600 118
852 22 120 49 279 61 353 11 74 36 230 55 345 18 116 43 273 55 350 12 77 28
178 36 225 19 116 50 305 69 420 8 52 22 140 31 195 20 121 14 195 -19 261
-29 58 -56 84 -116 114 -48 24 -140 35 -181 21z"/>
</g>
</svg>
