<?xml version="1.0" standalone="no"?>
<!DOCTYPE svg PUBLIC "-//W3C//DTD SVG 20010904//EN"
 "http://www.w3.org/TR/2001/REC-SVG-20010904/DTD/svg10.dtd">
<svg version="1.0" xmlns="http://www.w3.org/2000/svg"
 width="1600.000000pt" height="1200.000000pt" viewBox="0 0 1600.000000 1200.000000"
 preserveAspectRatio="xMidYMid meet">
<metadata>
Created by potrace 1.16, written by Peter Selinger 2001-2019
</metadata>
<g transform="translate(0.000000,1200.000000) scale(0.100000,-0.100000)"
fill="#000000" stroke="none">
<path d="M6790 10971 c0 -28 -4 -53 -10 -56 -12 -8 -14 -971 -1 -979 4 -3 11
-45 15 -93 3 -49 11 -133 16 -188 6 -55 13 -143 16 -196 l6 -95 -88 -54 c-86
-51 -109 -65 -191 -111 -21 -12 -50 -30 -65 -40 -14 -11 -28 -19 -31 -19 -3 0
-35 -18 -72 -41 -64 -39 -81 -49 -172 -100 -21 -12 -50 -30 -65 -40 -14 -11
-28 -19 -31 -19 -3 0 -42 -22 -87 -50 -45 -27 -87 -50 -94 -50 -7 0 -22 -9
-34 -20 -12 -11 -24 -20 -27 -20 -3 0 -39 -22 -80 -50 -41 -27 -77 -50 -80
-50 -3 0 -36 -20 -73 -43 -150 -97 -182 -117 -187 -117 -3 0 -38 -22 -78 -48
-40 -26 -93 -58 -119 -71 -27 -13 -48 -28 -48 -33 0 -4 -5 -8 -11 -8 -6 0 -30
-13 -54 -30 -24 -16 -47 -30 -52 -30 -4 0 -19 -9 -33 -20 -16 -12 -41 -20 -67
-20 l-43 0 0 -64 0 -64 38 -3 c62 -6 103 1 109 19 9 22 26 35 101 73 34 18 62
36 62 40 0 5 5 9 10 9 6 0 44 23 85 50 41 28 77 50 80 50 3 0 36 20 73 43 37
24 99 63 137 87 39 24 99 62 135 84 36 23 86 52 113 65 26 13 47 28 47 33 0 4
5 8 11 8 6 0 30 14 54 30 24 17 46 30 50 30 4 0 26 14 50 30 24 17 46 30 50
30 4 0 26 14 50 30 24 17 46 30 48 30 3 0 64 36 137 80 73 44 134 80 137 80 2
0 24 14 48 30 24 17 47 30 50 30 4 0 19 8 33 19 15 10 45 29 67 41 22 13 59
33 81 46 l42 23 5 -67 c4 -37 11 -96 17 -132 10 -62 21 -146 41 -312 9 -75 17
-145 39 -315 19 -156 32 -260 40 -338 5 -44 13 -102 19 -130 12 -54 25 -126
41 -220 6 -33 15 -85 20 -115 5 -30 14 -82 20 -115 6 -33 14 -82 19 -110 5
-27 14 -77 20 -110 6 -33 15 -89 22 -125 6 -36 14 -92 18 -125 4 -33 15 -79
23 -102 15 -41 15 -42 -11 -66 -14 -14 -64 -54 -111 -89 -47 -35 -116 -88
-155 -118 -38 -30 -108 -83 -155 -117 -142 -105 -170 -127 -170 -138 0 -5 -64
-75 -141 -155 -78 -80 -187 -201 -242 -270 -56 -69 -139 -170 -185 -225 -46
-55 -90 -109 -99 -120 -9 -11 -37 -43 -62 -71 -25 -28 -53 -64 -61 -80 -20
-39 -141 -231 -201 -321 -27 -40 -49 -75 -49 -78 0 -3 -40 -66 -90 -140 -49
-74 -90 -137 -90 -140 0 -3 -9 -15 -20 -27 -11 -12 -20 -28 -20 -35 0 -7 -4
-13 -10 -13 -5 0 -10 -5 -10 -10 0 -12 -25 -69 -95 -215 -70 -146 -201 -422
-278 -585 -7 -14 -14 -27 -17 -30 -12 -12 -29 -60 -40 -115 -7 -33 -16 -69
-20 -80 -5 -11 -11 -33 -15 -50 -7 -36 -20 -87 -35 -140 -6 -22 -15 -56 -20
-75 -5 -19 -14 -53 -20 -75 -6 -22 -15 -57 -19 -77 -5 -20 -16 -49 -25 -63
-16 -24 -17 -61 -11 -443 10 -712 11 -742 35 -767 11 -12 20 -26 20 -32 0 -6
13 -42 29 -81 16 -39 27 -80 24 -91 -3 -12 -1 -21 6 -21 6 0 16 -12 21 -26 6
-14 14 -22 20 -19 11 7 80 -45 80 -60 0 -14 76 -49 89 -41 11 7 78 -11 96 -26
12 -11 692 -10 699 1 3 4 27 12 53 15 27 4 75 11 108 16 33 5 85 14 115 20 30
5 78 13 105 16 28 3 73 14 100 23 83 30 121 41 138 41 16 0 56 18 67 31 8 9
138 69 149 69 6 0 11 5 11 10 0 6 5 10 11 10 6 0 30 14 54 30 24 17 47 30 52
30 4 0 19 9 33 20 14 11 32 20 41 20 8 0 25 9 37 20 12 11 24 20 27 20 3 0 34
22 68 48 34 27 98 72 142 102 44 30 113 87 155 128 61 60 180 165 270 239 8 6
47 38 85 70 86 70 133 109 203 163 29 22 66 59 82 82 35 47 103 129 145 173
30 31 59 70 79 104 28 47 116 168 135 185 11 11 21 24 21 29 0 6 7 19 17 29 9
10 21 27 27 37 49 84 141 201 150 190 11 -14 96 -151 96 -155 0 -3 14 -25 30
-49 17 -24 30 -46 30 -49 0 -2 22 -40 48 -83 26 -43 59 -103 74 -133 14 -30
50 -80 79 -110 30 -31 90 -96 134 -145 304 -339 320 -357 325 -370 5 -13 38
-41 160 -134 39 -30 80 -70 92 -90 28 -47 83 -101 102 -101 8 0 20 -9 26 -20
10 -18 19 -21 68 -18 l57 3 0 60 c0 59 -1 60 -29 63 -38 5 -100 46 -117 80
-17 32 -85 102 -100 102 -22 0 -150 114 -225 201 -43 51 -95 108 -114 128
-157 164 -304 332 -348 398 -23 34 -42 64 -42 67 0 2 -22 40 -48 83 -26 43
-55 94 -65 113 -23 46 -50 90 -114 183 -29 42 -53 85 -53 96 0 11 23 59 51
108 63 108 78 136 125 238 20 44 50 109 66 145 101 220 374 773 400 812 10 14
18 33 18 42 0 9 5 16 10 16 6 0 10 7 10 15 0 8 4 23 9 33 5 9 17 35 26 57 10
22 28 64 41 93 13 28 35 77 49 107 14 30 36 80 50 110 14 30 36 79 49 108 13
28 34 75 46 102 12 28 33 75 47 105 14 30 33 73 43 95 17 39 41 92 96 213 33
72 103 221 115 244 5 10 9 25 9 33 0 8 4 23 9 33 5 9 13 28 18 42 14 35 29 69
46 110 9 19 34 82 57 140 23 58 48 121 57 140 18 43 33 78 44 108 5 12 14 33
19 47 6 14 14 35 19 48 4 12 13 34 20 50 6 15 15 37 20 50 5 12 18 43 30 69
12 26 21 54 21 61 0 7 4 17 8 23 5 5 17 29 26 54 10 25 24 61 33 80 21 48 29
70 41 105 6 17 14 39 18 50 4 11 15 40 24 65 l16 45 70 8 c38 4 137 12 219 17
83 6 202 15 265 20 63 5 226 12 362 16 319 8 440 -5 603 -66 11 -4 54 -18 95
-31 71 -22 89 -30 175 -79 74 -41 176 -113 189 -131 7 -11 29 -36 47 -57 102
-111 139 -166 169 -252 7 -19 17 -46 22 -60 6 -14 14 -34 18 -45 4 -11 12 -31
18 -45 42 -103 68 -193 78 -270 3 -30 10 -80 14 -110 5 -30 14 -89 20 -130 6
-41 15 -109 20 -150 6 -41 15 -106 20 -145 6 -38 15 -104 20 -145 5 -41 15
-113 22 -160 17 -118 18 -1555 0 -1650 -6 -36 -16 -94 -22 -130 -25 -161 -40
-234 -60 -305 -6 -22 -15 -56 -20 -75 -5 -19 -14 -53 -20 -75 -7 -22 -14 -55
-17 -73 -3 -18 -9 -35 -14 -38 -5 -3 -9 -16 -9 -29 0 -13 -4 -34 -9 -47 -5
-13 -14 -42 -20 -65 -38 -147 -52 -195 -62 -215 -5 -10 -9 -22 -9 -28 0 -5
-11 -33 -24 -62 -13 -29 -34 -75 -46 -103 -12 -27 -38 -84 -57 -125 -33 -71
-40 -87 -62 -142 -40 -105 -140 -303 -190 -378 -9 -14 -23 -37 -30 -52 -8 -15
-21 -36 -30 -45 -9 -10 -27 -40 -40 -68 -13 -27 -36 -77 -52 -109 -37 -75 -36
-91 3 -110 55 -28 63 -22 108 67 22 45 54 105 70 132 17 28 33 57 37 65 3 8
19 34 35 57 15 23 28 45 28 50 0 5 13 24 28 43 26 33 62 99 62 115 0 4 7 23
16 43 37 85 53 121 84 187 18 39 36 79 40 90 21 54 75 176 115 260 18 39 41
102 50 140 24 102 32 135 45 180 7 22 14 55 17 73 3 18 9 35 14 38 5 3 9 16 9
29 0 13 4 34 9 47 5 13 14 42 20 66 24 91 34 129 49 172 8 25 19 72 23 105 4
33 12 92 19 130 12 70 22 138 36 228 3 26 11 50 15 53 12 7 12 1411 0 1418 -5
3 -11 32 -14 63 -7 62 -20 171 -37 293 -5 41 -12 111 -16 155 -3 44 -9 89 -14
100 -5 11 -12 45 -15 75 -7 54 -12 86 -35 240 -6 41 -13 102 -16 134 -2 33
-13 75 -23 95 -11 20 -24 52 -31 71 -18 51 -39 106 -59 150 -4 8 -15 42 -25
75 -27 87 -55 145 -72 145 -8 0 -14 3 -14 8 -1 4 -25 34 -56 67 -30 33 -67 78
-81 100 -34 50 -56 69 -113 97 -43 21 -160 95 -170 108 -8 10 -78 41 -87 38
-8 -2 -108 26 -148 42 -11 4 -40 13 -65 21 -25 7 -61 20 -80 30 -28 15 -72 19
-230 24 -260 9 -293 8 -445 -4 -71 -6 -195 -16 -275 -21 -80 -5 -203 -14 -274
-20 -71 -5 -131 -8 -134 -5 -4 3 24 82 68 190 4 11 22 58 40 105 39 103 44
118 58 150 5 14 20 52 32 85 12 33 27 71 32 85 6 14 14 34 18 45 4 11 12 31
18 45 5 14 20 52 32 85 12 33 30 78 40 100 10 22 23 63 30 90 7 28 15 59 20
70 4 11 18 54 30 95 12 41 26 84 30 95 4 11 18 54 30 95 12 41 26 83 31 92 5
10 9 27 9 37 0 11 5 23 10 26 6 3 10 17 10 30 0 13 5 27 10 30 6 3 10 17 10
30 0 13 4 26 9 29 4 3 11 19 14 36 4 16 13 30 21 30 10 0 15 15 18 49 5 75 3
79 -51 83 -75 5 -81 2 -81 -43 0 -22 -4 -47 -9 -57 -5 -9 -14 -30 -21 -47 -7
-16 -16 -38 -21 -47 -5 -10 -9 -23 -9 -30 0 -13 -36 -138 -50 -173 -4 -11 -13
-40 -20 -65 -7 -25 -16 -54 -20 -65 -4 -11 -13 -40 -20 -65 -7 -25 -16 -54
-20 -65 -4 -11 -18 -54 -31 -95 -12 -41 -26 -79 -31 -84 -4 -6 -8 -19 -8 -31
0 -12 -4 -25 -8 -31 -4 -5 -14 -27 -21 -49 -7 -22 -17 -51 -23 -65 -13 -31
-21 -50 -48 -125 -12 -33 -26 -69 -30 -80 -4 -11 -18 -47 -30 -80 -12 -33 -26
-70 -31 -82 -5 -13 -13 -33 -18 -45 -5 -13 -19 -50 -31 -83 -12 -33 -26 -69
-30 -80 -4 -11 -22 -58 -40 -105 -17 -47 -35 -95 -40 -106 -11 -27 -47 -35
-220 -45 -74 -4 -169 -13 -210 -18 -100 -14 -255 -31 -365 -40 -49 -5 -106
-14 -125 -20 -19 -7 -52 -17 -72 -22 -21 -5 -57 -14 -80 -20 -24 -5 -61 -14
-83 -19 -45 -10 -109 -26 -170 -41 -22 -6 -56 -13 -75 -15 -19 -3 -44 -9 -55
-13 -44 -18 -92 -31 -113 -31 -11 0 -23 -4 -26 -9 -3 -5 -20 -11 -38 -14 -36
-6 -90 -19 -153 -37 -22 -6 -51 -14 -65 -16 -14 -3 -34 -9 -45 -14 -11 -4 -47
-13 -80 -20 -68 -14 -115 -31 -115 -42 0 -5 -5 -8 -11 -8 -5 0 -39 -13 -75
-30 -149 -70 -193 -90 -259 -119 -76 -34 -115 -54 -185 -93 -46 -26 -127 -70
-260 -140 -41 -22 -79 -44 -84 -49 -21 -19 -34 -7 -39 34 -3 23 -10 65 -16 92
-6 28 -16 77 -21 110 -6 33 -14 85 -20 115 -5 30 -14 84 -21 120 -6 36 -15 88
-19 115 -4 28 -13 77 -19 110 -56 321 -76 455 -121 818 -9 72 -15 115 -40 315
-5 42 -14 113 -20 157 -16 123 -31 275 -33 329 -2 49 -1 50 43 76 25 15 83 51
130 80 47 29 101 62 120 73 19 10 46 27 60 37 14 10 41 27 60 37 19 11 73 44
120 73 47 29 99 61 117 71 17 10 57 34 87 53 116 75 162 102 209 126 26 14 47
28 47 32 0 5 5 8 11 8 6 0 23 8 37 19 15 10 44 28 65 40 20 11 53 30 72 41 19
11 52 29 73 41 20 12 42 25 47 29 6 4 27 17 48 29 20 12 53 30 72 41 19 11 51
29 71 40 19 11 47 28 61 37 39 26 85 51 126 70 20 10 37 21 37 25 0 5 4 8 9 8
5 0 39 18 75 40 36 22 68 40 72 40 3 0 18 8 32 18 15 11 52 32 82 49 56 30 89
49 170 96 45 27 218 112 255 127 11 4 36 15 57 24 20 9 39 16 43 16 15 0 81
34 102 53 15 14 31 18 50 14 41 -8 85 3 90 23 3 10 13 20 22 23 22 5 33 53 22
93 -5 19 -16 30 -35 35 -41 11 -88 0 -94 -23 -2 -10 -9 -18 -16 -17 -45 5 -78
-3 -83 -20 -4 -16 -117 -80 -198 -111 -11 -4 -36 -15 -57 -24 -20 -9 -39 -16
-43 -16 -13 0 -94 -40 -100 -49 -3 -6 -18 -16 -33 -24 -15 -7 -44 -23 -64 -35
-56 -32 -103 -59 -145 -83 -21 -12 -42 -25 -48 -29 -10 -7 -99 -57 -170 -94
-22 -12 -41 -24 -43 -28 -2 -5 -8 -8 -14 -8 -5 0 -22 -8 -36 -19 -15 -10 -44
-28 -64 -40 -21 -11 -54 -30 -73 -41 -19 -11 -52 -29 -72 -41 -21 -12 -42 -25
-48 -29 -5 -4 -27 -17 -47 -29 -62 -35 -100 -56 -168 -97 -36 -21 -78 -47 -95
-56 -16 -10 -47 -25 -67 -34 -21 -9 -38 -20 -38 -25 0 -5 -5 -9 -10 -9 -6 0
-44 -22 -85 -50 -41 -27 -77 -50 -80 -50 -3 0 -37 -20 -75 -45 -39 -25 -101
-65 -140 -90 -38 -25 -72 -45 -75 -45 -4 0 -33 -18 -65 -40 -32 -22 -62 -40
-65 -40 -4 0 -25 -13 -48 -29 -24 -16 -65 -42 -92 -59 -28 -16 -87 -52 -133
-81 -46 -28 -87 -51 -91 -51 -5 0 -11 35 -14 78 -14 187 -27 314 -32 322 -10
17 -5 1024 5 1034 6 6 10 41 10 78 l0 68 -65 0 -65 0 0 -49z m3450 -3307 c0
-3 -7 -22 -16 -42 -9 -21 -20 -47 -25 -59 -23 -58 -32 -79 -40 -95 -5 -10 -9
-22 -9 -28 0 -6 -9 -32 -21 -58 -12 -26 -25 -57 -30 -69 -19 -48 -29 -74 -38
-95 -5 -13 -16 -39 -24 -58 -9 -19 -30 -71 -47 -115 -17 -44 -38 -96 -47 -115
-20 -47 -34 -81 -43 -105 -4 -11 -13 -33 -20 -50 -14 -33 -29 -70 -40 -100 -5
-11 -15 -36 -23 -55 -9 -19 -25 -59 -37 -89 -11 -30 -30 -75 -42 -100 -23 -52
-46 -107 -58 -136 -14 -35 -41 -98 -66 -152 -34 -74 -70 -154 -98 -215 -13
-29 -35 -78 -49 -108 -14 -30 -35 -77 -47 -105 -12 -27 -33 -75 -47 -105 -14
-30 -33 -73 -43 -95 -10 -22 -30 -66 -44 -97 -14 -32 -38 -84 -52 -115 -14
-32 -39 -85 -55 -117 -16 -32 -29 -65 -29 -72 0 -8 -4 -14 -10 -14 -5 0 -10
-6 -10 -13 0 -10 -196 -409 -247 -502 -6 -11 -20 -40 -31 -65 -26 -59 -62
-139 -101 -222 -17 -38 -45 -98 -62 -135 -59 -129 -104 -218 -145 -291 l-42
-74 -28 44 c-16 24 -34 52 -41 63 -265 436 -264 434 -366 640 -100 200 -127
260 -127 278 0 7 -4 17 -8 23 -5 5 -19 43 -31 84 -13 41 -27 84 -32 95 -4 11
-18 52 -30 90 -12 39 -25 79 -29 90 -21 58 -50 155 -50 169 0 9 -4 24 -9 34
-5 9 -15 37 -21 62 -7 25 -16 56 -20 70 -4 14 -13 45 -20 70 -6 25 -15 59 -20
75 -4 17 -14 55 -20 85 -12 54 -17 70 -37 120 -6 14 -34 99 -63 190 -29 91
-56 174 -60 185 -20 55 -50 155 -50 169 0 9 -4 24 -9 34 -8 16 -18 50 -40 140
-18 71 -32 127 -42 158 -15 51 -11 59 44 88 28 16 81 45 117 64 36 19 94 50
130 70 96 52 225 117 305 153 124 56 168 76 247 113 43 20 82 36 88 36 6 0 18
4 28 9 20 10 105 35 210 60 74 18 127 33 150 42 13 5 34 9 47 9 13 0 26 4 29
9 3 5 20 11 38 14 18 4 49 9 68 12 19 4 44 10 55 15 11 5 34 11 50 15 17 3 47
10 68 15 95 25 115 30 162 40 59 14 110 26 168 41 68 17 137 29 222 39 44 5
123 14 175 20 52 6 141 14 197 19 57 4 106 10 109 14 9 9 184 9 184 1z m-2995
-941 c3 -16 11 -46 16 -68 6 -22 15 -58 21 -80 5 -22 14 -54 19 -71 5 -17 9
-42 9 -55 0 -14 9 -44 20 -67 11 -22 20 -48 20 -57 0 -8 4 -23 9 -33 5 -9 23
-64 41 -122 18 -58 36 -113 41 -122 5 -10 9 -25 9 -33 0 -8 4 -23 9 -33 14
-27 51 -148 51 -166 0 -9 4 -24 9 -34 5 -9 15 -37 21 -62 7 -25 16 -56 20 -70
4 -14 13 -45 20 -70 6 -25 15 -58 20 -75 4 -16 14 -55 20 -85 7 -30 16 -64 21
-75 4 -11 18 -51 30 -90 12 -38 25 -79 29 -90 15 -37 50 -160 50 -173 0 -7 4
-20 9 -30 5 -9 13 -28 18 -42 6 -14 15 -36 21 -50 6 -14 21 -56 33 -95 12 -38
31 -88 42 -110 11 -22 59 -117 106 -210 47 -94 96 -184 107 -200 20 -28 184
-299 225 -371 37 -66 45 -79 81 -128 42 -56 46 -80 21 -108 -9 -10 -21 -27
-27 -37 -27 -46 -116 -168 -135 -185 -11 -11 -21 -24 -21 -29 0 -6 -7 -19 -17
-29 -9 -10 -21 -27 -27 -37 -22 -38 -115 -167 -135 -188 -12 -12 -21 -26 -21
-32 0 -5 -3 -11 -7 -13 -5 -1 -28 -28 -53 -58 -101 -124 -179 -205 -249 -260
-24 -19 -73 -60 -110 -90 -67 -55 -96 -79 -206 -167 -33 -27 -98 -85 -145
-130 -85 -81 -202 -173 -322 -254 -34 -23 -64 -46 -66 -51 -2 -4 -8 -8 -14 -8
-5 0 -22 -8 -36 -19 -29 -20 -83 -52 -147 -85 -22 -12 -42 -23 -45 -26 -6 -6
-173 -88 -205 -100 -47 -18 -80 -28 -200 -58 -37 -10 -128 -25 -215 -36 -19
-3 -62 -11 -95 -18 -69 -15 -753 -18 -820 -4 -51 11 -141 79 -159 120 -48 109
-77 201 -86 276 -13 110 -13 1022 0 1067 6 18 14 48 19 66 4 17 14 52 20 77 7
25 16 59 20 75 5 17 14 50 20 75 7 25 16 59 20 75 5 17 13 49 20 73 6 23 16
61 22 85 17 65 29 93 122 287 30 63 78 163 106 223 28 59 73 153 100 210 27
56 61 129 77 162 16 33 32 62 36 63 4 2 8 8 8 13 0 9 11 27 174 277 47 73 86
135 86 138 0 2 41 65 90 139 50 74 90 139 90 145 0 5 4 10 8 10 4 0 15 13 25
29 18 31 144 189 275 346 46 55 91 109 99 120 55 68 128 151 199 225 44 47
109 116 145 154 62 66 135 129 269 232 36 28 103 79 149 115 46 35 104 81 130
101 25 20 49 37 53 37 4 1 10 -11 13 -26z"/>
</g>
</svg>
