<?xml version="1.0" encoding="UTF-8" standalone="no"?>
<!DOCTYPE svg PUBLIC "-//W3C//DTD SVG 1.1//EN" 
  "http://www.w3.org/Graphics/SVG/1.1/DTD/svg11.dtd">
<svg width="297" height="297"
	 xmlns="http://www.w3.org/2000/svg" version="1.1">
 <path d="  M 28,158  L 28,159  L 29,159  L 29,158  Z  " style="fill:rgb(0, 0, 0); fill-opacity:0.012; stroke:none;" />
 <path d="  M 34,158  L 34,159  L 35,159  L 35,158  Z  " style="fill:rgb(0, 0, 0); fill-opacity:0.012; stroke:none;" />
 <path d="  M 28,160  L 29,160  L 29,159  L 28,159  Z  " style="fill:rgb(0, 0, 0); fill-opacity:0.102; stroke:none;" />
 <path d="  M 35,157  L 34,157  L 34,158  L 35,158  Z  " style="fill:rgb(0, 0, 0); fill-opacity:0.102; stroke:none;" />
 <path d="  M 29,160  L 28,160  L 28,161  L 29,161  Z  " style="fill:rgb(0, 0, 0); fill-opacity:0.192; stroke:none;" />
 <path d="  M 32,211  L 33,211  L 33,210  L 32,210  Z  " style="fill:rgb(0, 0, 0); fill-opacity:0.192; stroke:none;" />
 <path d="  M 35,157  L 35,156  L 34,156  L 34,157  Z  " style="fill:rgb(0, 0, 0); fill-opacity:0.192; stroke:none;" />
 <path d="  M 40,214  L 40,213  L 39,213  L 39,214  Z  " style="fill:rgb(0, 0, 0); fill-opacity:0.192; stroke:none;" />
 <path d="  M 28,161  L 28,162  L 29,162  L 29,161  Z  " style="fill:rgb(0, 0, 0); fill-opacity:0.639; stroke:none;" />
 <path d="  M 29,166  L 28,166  L 28,167  L 29,167  Z  " style="fill:rgb(0, 0, 0); fill-opacity:0.639; stroke:none;" />
 <path d="  M 33,166  L 33,167  L 34,167  L 34,166  Z  " style="fill:rgb(0, 0, 0); fill-opacity:0.639; stroke:none;" />
 <path d="  M 200,204  L 201,204  L 201,203  L 200,203  Z  " style="fill:rgb(0, 0, 0); fill-opacity:0.639; stroke:none;" />
 <path d="  M 206,205  L 206,206  L 207,206  L 207,205  Z  " style="fill:rgb(0, 0, 0); fill-opacity:0.639; stroke:none;" />
 <path d="  M 28,162  L 28,163  L 29,163  L 29,162  Z  " style="fill:rgb(0, 0, 0); fill-opacity:0.686; stroke:none;" />
 <path d="  M 34,165  L 33,165  L 33,166  L 34,166  Z  " style="fill:rgb(0, 0, 0); fill-opacity:0.686; stroke:none;" />
 <path d="  M 43,232  L 43,231  L 42,231  L 42,232  Z  " style="fill:rgb(0, 0, 0); fill-opacity:0.686; stroke:none;" />
 <path d="  M 29,164  L 29,163  L 28,163  L 28,164  Z  " style="fill:rgb(0, 0, 0); fill-opacity:0.733; stroke:none;" />
 <path d="  M 34,165  L 34,164  L 33,164  L 33,165  Z  " style="fill:rgb(0, 0, 0); fill-opacity:0.733; stroke:none;" />
 <path d="  M 44,222  L 43,222  L 43,223  L 44,223  Z  " style="fill:rgb(0, 0, 0); fill-opacity:0.733; stroke:none;" />
 <path d="  M 29,165  L 29,164  L 28,164  L 28,165  Z  " style="fill:rgb(0, 0, 0); fill-opacity:0.776; stroke:none;" />
 <path d="  M 33,163  L 33,164  L 34,164  L 34,163  Z  " style="fill:rgb(0, 0, 0); fill-opacity:0.776; stroke:none;" />
 <path d="  M 29,166  L 29,165  L 28,165  L 28,166  Z  " style="fill:rgb(0, 0, 0); fill-opacity:0.820; stroke:none;" />
 <path d="  M 29,167  L 28,167  L 28,170  L 29,170  Z  " style="fill:rgb(0, 0, 0); fill-opacity:0.502; stroke:none;" />
 <path d="  M 29,176  L 28,176  L 28,178  L 29,178  Z  " style="fill:rgb(0, 0, 0); fill-opacity:0.502; stroke:none;" />
 <path d="  M 28,184  L 28,186  L 29,186  L 29,184  Z  " style="fill:rgb(0, 0, 0); fill-opacity:0.502; stroke:none;" />
 <path d="  M 30,136  L 31,136  L 31,128  L 30,128  Z  " style="fill:rgb(0, 0, 0); fill-opacity:0.502; stroke:none;" />
 <path d="  M 33,167  L 33,170  L 34,170  L 34,167  Z  " style="fill:rgb(0, 0, 0); fill-opacity:0.502; stroke:none;" />
 <path d="  M 33,178  L 34,178  L 34,176  L 33,176  Z  " style="fill:rgb(0, 0, 0); fill-opacity:0.502; stroke:none;" />
 <path d="  M 33,184  L 33,186  L 34,186  L 34,184  Z  " style="fill:rgb(0, 0, 0); fill-opacity:0.502; stroke:none;" />
 <path d="  M 35,136  L 36,136  L 36,128  L 35,128  Z  " style="fill:rgb(0, 0, 0); fill-opacity:0.502; stroke:none;" />
 <path d="  M 62,244  L 61,244  L 61,245  L 62,245  Z  " style="fill:rgb(0, 0, 0); fill-opacity:0.502; stroke:none;" />
 <path d="  M 74,242  L 73,242  L 73,243  L 74,243  Z  " style="fill:rgb(0, 0, 0); fill-opacity:0.502; stroke:none;" />
 <path d="  M 195,207  L 195,208  L 196,208  L 196,207  Z  " style="fill:rgb(0, 0, 0); fill-opacity:0.502; stroke:none;" />
 <path d="  M 196,206  L 196,207  L 197,207  L 197,206  Z  " style="fill:rgb(0, 0, 0); fill-opacity:0.502; stroke:none;" />
 <path d="  M 208,184  L 208,185  L 209,185  L 209,184  Z  " style="fill:rgb(0, 0, 0); fill-opacity:0.502; stroke:none;" />
 <path d="  M 213,177  L 213,178  L 214,178  L 214,177  Z  " style="fill:rgb(0, 0, 0); fill-opacity:0.502; stroke:none;" />
 <path d="  M 215,180  L 214,180  L 214,181  L 215,181  Z  " style="fill:rgb(0, 0, 0); fill-opacity:0.502; stroke:none;" />
 <path d="  M 29,170  L 28,170  L 28,176  L 29,176  Z  " style="fill:rgb(0, 0, 0); fill-opacity:0.749; stroke:none;" />
 <path d="  M 28,178  L 28,184  L 29,184  L 29,178  Z  " style="fill:rgb(0, 0, 0); fill-opacity:0.749; stroke:none;" />
 <path d="  M 32,113  L 32,112  L 31,112  L 31,113  Z  " style="fill:rgb(0, 0, 0); fill-opacity:0.749; stroke:none;" />
 <path d="  M 34,170  L 33,170  L 33,176  L 34,176  Z  " style="fill:rgb(0, 0, 0); fill-opacity:0.749; stroke:none;" />
 <path d="  M 33,184  L 34,184  L 34,178  L 33,178  Z  " style="fill:rgb(0, 0, 0); fill-opacity:0.749; stroke:none;" />
 <path d="  M 70,233  L 69,233  L 69,234  L 70,234  Z  " style="fill:rgb(0, 0, 0); fill-opacity:0.749; stroke:none;" />
 <path d="  M 71,229  L 70,229  L 70,231  L 71,231  Z  " style="fill:rgb(0, 0, 0); fill-opacity:0.749; stroke:none;" />
 <path d="  M 72,245  L 73,245  L 73,244  L 72,244  Z  " style="fill:rgb(0, 0, 0); fill-opacity:0.749; stroke:none;" />
 <path d="  M 185,100  L 185,99  L 179,99  L 179,100  Z  " style="fill:rgb(0, 0, 0); fill-opacity:0.749; stroke:none;" />
 <path d="  M 179,106  L 180,106  L 180,105  L 179,105  Z  " style="fill:rgb(0, 0, 0); fill-opacity:0.749; stroke:none;" />
 <path d="  M 191,134  L 191,133  L 190,133  L 190,134  Z  " style="fill:rgb(0, 0, 0); fill-opacity:0.749; stroke:none;" />
 <path d="  M 194,125  L 193,125  L 193,126  L 194,126  Z  " style="fill:rgb(0, 0, 0); fill-opacity:0.749; stroke:none;" />
 <path d="  M 196,133  L 196,132  L 195,132  L 195,133  Z  " style="fill:rgb(0, 0, 0); fill-opacity:0.749; stroke:none;" />
 <path d="  M 196,135  L 197,135  L 197,134  L 196,134  Z  " style="fill:rgb(0, 0, 0); fill-opacity:0.749; stroke:none;" />
 <path d="  M 202,211  L 201,211  L 201,212  L 200,212  L 200,213  L 202,213  Z  " style="fill:rgb(0, 0, 0); fill-opacity:0.749; stroke:none;" />
 <path d="  M 207,196  L 207,195  L 206,195  L 206,196  Z  " style="fill:rgb(0, 0, 0); fill-opacity:0.749; stroke:none;" />
 <path d="  M 29,186  L 28,186  L 28,187  L 29,187  Z  " style="fill:rgb(0, 0, 0); fill-opacity:0.608; stroke:none;" />
 <path d="  M 28,192  L 29,192  L 29,191  L 28,191  Z  " style="fill:rgb(0, 0, 0); fill-opacity:0.608; stroke:none;" />
 <path d="  M 34,186  L 33,186  L 33,187  L 34,187  Z  " style="fill:rgb(0, 0, 0); fill-opacity:0.608; stroke:none;" />
 <path d="  M 29,187  L 28,187  L 28,188  L 29,188  Z  " style="fill:rgb(0, 0, 0); fill-opacity:0.855; stroke:none;" />
 <path d="  M 34,190  L 33,190  L 33,191  L 34,191  Z  " style="fill:rgb(0, 0, 0); fill-opacity:0.855; stroke:none;" />
 <path d="  M 28,189  L 29,189  L 29,188  L 28,188  Z  " style="fill:rgb(0, 0, 0); fill-opacity:0.792; stroke:none;" />
 <path d="  M 34,189  L 33,189  L 33,190  L 34,190  Z  " style="fill:rgb(0, 0, 0); fill-opacity:0.792; stroke:none;" />
 <path d="  M 68,239  L 68,238  L 67,238  L 67,239  Z  " style="fill:rgb(0, 0, 0); fill-opacity:0.792; stroke:none;" />
 <path d="  M 75,237  L 76,237  L 76,236  L 75,236  Z  " style="fill:rgb(0, 0, 0); fill-opacity:0.792; stroke:none;" />
 <path d="  M 76,235  L 77,235  L 77,234  L 76,234  Z  " style="fill:rgb(0, 0, 0); fill-opacity:0.792; stroke:none;" />
 <path d="  M 206,196  L 206,197  L 207,197  L 207,196  Z  " style="fill:rgb(0, 0, 0); fill-opacity:0.792; stroke:none;" />
 <path d="  M 28,189  L 28,190  L 29,190  L 29,189  Z  " style="fill:rgb(0, 0, 0); fill-opacity:0.729; stroke:none;" />
 <path d="  M 33,100  L 32,100  L 32,101  L 33,101  Z  " style="fill:rgb(0, 0, 0); fill-opacity:0.729; stroke:none;" />
 <path d="  M 33,189  L 34,189  L 34,188  L 33,188  Z  " style="fill:rgb(0, 0, 0); fill-opacity:0.729; stroke:none;" />
 <path d="  M 37,102  L 38,102  L 38,101  L 37,101  Z  " style="fill:rgb(0, 0, 0); fill-opacity:0.729; stroke:none;" />
 <path d="  M 29,190  L 28,190  L 28,191  L 29,191  Z  " style="fill:rgb(0, 0, 0); fill-opacity:0.667; stroke:none;" />
 <path d="  M 30,122  L 30,123  L 31,123  L 31,122  Z  " style="fill:rgb(0, 0, 0); fill-opacity:0.667; stroke:none;" />
 <path d="  M 30,128  L 31,128  L 31,127  L 30,127  Z  " style="fill:rgb(0, 0, 0); fill-opacity:0.667; stroke:none;" />
 <path d="  M 31,137  L 31,136  L 30,136  L 30,137  Z  " style="fill:rgb(0, 0, 0); fill-opacity:0.667; stroke:none;" />
 <path d="  M 33,188  L 34,188  L 34,187  L 33,187  Z  " style="fill:rgb(0, 0, 0); fill-opacity:0.667; stroke:none;" />
 <path d="  M 35,127  L 35,128  L 36,128  L 36,127  Z  " style="fill:rgb(0, 0, 0); fill-opacity:0.667; stroke:none;" />
 <path d="  M 36,137  L 36,136  L 35,136  L 35,137  Z  " style="fill:rgb(0, 0, 0); fill-opacity:0.667; stroke:none;" />
 <path d="  M 36,142  L 36,141  L 35,141  L 35,142  Z  " style="fill:rgb(0, 0, 0); fill-opacity:0.667; stroke:none;" />
 <path d="  M 29,193  L 29,192  L 28,192  L 28,193  Z  " style="fill:rgb(0, 0, 0); fill-opacity:0.086; stroke:none;" />
 <path d="  M 35,193  L 34,193  L 34,194  L 35,194  Z  " style="fill:rgb(0, 0, 0); fill-opacity:0.086; stroke:none;" />
 <path d="  M 29,146  L 29,147  L 30,147  L 30,146  Z  " style="fill:rgb(0, 0, 0); fill-opacity:0.043; stroke:none;" />
 <path d="  M 35,145  L 35,146  L 36,146  L 36,145  Z  " style="fill:rgb(0, 0, 0); fill-opacity:0.043; stroke:none;" />
 <path d="  M 37,206  L 37,207  L 38,207  L 38,206  Z  " style="fill:rgb(0, 0, 0); fill-opacity:0.043; stroke:none;" />
 <path d="  M 29,148  L 30,148  L 30,147  L 29,147  Z  " style="fill:rgb(0, 0, 0); fill-opacity:0.114; stroke:none;" />
 <path d="  M 35,145  L 36,145  L 36,144  L 35,144  Z  " style="fill:rgb(0, 0, 0); fill-opacity:0.114; stroke:none;" />
 <path d="  M 29,148  L 29,149  L 30,149  L 30,148  Z  " style="fill:rgb(0, 0, 0); fill-opacity:0.184; stroke:none;" />
 <path d="  M 36,143  L 35,143  L 35,144  L 36,144  Z  " style="fill:rgb(0, 0, 0); fill-opacity:0.184; stroke:none;" />
 <path d="  M 30,150  L 30,149  L 29,149  L 29,150  Z  " style="fill:rgb(0, 0, 0); fill-opacity:0.255; stroke:none;" />
 <path d="  M 184,116  L 183,116  L 183,117  L 184,117  Z  " style="fill:rgb(0, 0, 0); fill-opacity:0.255; stroke:none;" />
 <path d="  M 187,112  L 187,113  L 188,113  L 188,112  Z  " style="fill:rgb(0, 0, 0); fill-opacity:0.255; stroke:none;" />
 <path d="  M 191,118  L 191,117  L 190,117  L 190,118  Z  " style="fill:rgb(0, 0, 0); fill-opacity:0.255; stroke:none;" />
 <path d="  M 194,141  L 194,142  L 195,142  L 195,141  Z  " style="fill:rgb(0, 0, 0); fill-opacity:0.255; stroke:none;" />
 <path d="  M 202,143  L 202,142  L 201,142  L 201,143  Z  " style="fill:rgb(0, 0, 0); fill-opacity:0.255; stroke:none;" />
 <path d="  M 30,150  L 29,150  L 29,151  L 30,151  Z  " style="fill:rgb(0, 0, 0); fill-opacity:0.518; stroke:none;" />
 <path d="  M 35,155  L 34,155  L 34,156  L 35,156  Z  " style="fill:rgb(0, 0, 0); fill-opacity:0.518; stroke:none;" />
 <path d="  M 40,214  L 39,214  L 39,215  L 40,215  Z  " style="fill:rgb(0, 0, 0); fill-opacity:0.518; stroke:none;" />
 <path d="  M 202,156  L 201,156  L 201,157  L 202,157  Z  " style="fill:rgb(0, 0, 0); fill-opacity:0.518; stroke:none;" />
 <path d="  M 29,151  L 29,152  L 30,152  L 30,151  Z  " style="fill:rgb(0, 0, 0); fill-opacity:0.624; stroke:none;" />
 <path d="  M 35,155  L 35,154  L 34,154  L 34,155  Z  " style="fill:rgb(0, 0, 0); fill-opacity:0.624; stroke:none;" />
 <path d="  M 30,152  L 29,152  L 29,153  L 30,153  Z  " style="fill:rgb(0, 0, 0); fill-opacity:0.718; stroke:none;" />
 <path d="  M 34,154  L 35,154  L 35,153  L 34,153  Z  " style="fill:rgb(0, 0, 0); fill-opacity:0.718; stroke:none;" />
 <path d="  M 196,209  L 196,208  L 195,208  L 195,209  Z  " style="fill:rgb(0, 0, 0); fill-opacity:0.718; stroke:none;" />
 <path d="  M 203,163  L 204,163  L 204,162  L 203,162  Z  " style="fill:rgb(0, 0, 0); fill-opacity:0.718; stroke:none;" />
 <path d="  M 29,153  L 29,154  L 30,154  L 30,153  Z  " style="fill:rgb(0, 0, 0); fill-opacity:0.796; stroke:none;" />
 <path d="  M 35,152  L 34,152  L 34,153  L 35,153  Z  " style="fill:rgb(0, 0, 0); fill-opacity:0.796; stroke:none;" />
 <path d="  M 185,118  L 185,117  L 184,117  L 184,118  Z  " style="fill:rgb(0, 0, 0); fill-opacity:0.796; stroke:none;" />
 <path d="  M 190,117  L 190,116  L 189,116  L 189,117  Z  " style="fill:rgb(0, 0, 0); fill-opacity:0.796; stroke:none;" />
 <path d="  M 195,142  L 195,143  L 196,143  L 196,142  Z  " style="fill:rgb(0, 0, 0); fill-opacity:0.796; stroke:none;" />
 <path d="  M 200,142  L 201,142  L 201,141  L 200,141  Z  " style="fill:rgb(0, 0, 0); fill-opacity:0.796; stroke:none;" />
 <path d="  M 30,155  L 30,154  L 29,154  L 29,155  Z  " style="fill:rgb(0, 0, 0); fill-opacity:0.863; stroke:none;" />
 <path d="  M 34,151  L 34,152  L 35,152  L 35,151  Z  " style="fill:rgb(0, 0, 0); fill-opacity:0.863; stroke:none;" />
 <path d="  M 30,155  L 29,155  L 29,156  L 30,156  Z  " style="fill:rgb(0, 0, 0); fill-opacity:0.824; stroke:none;" />
 <path d="  M 34,163  L 34,162  L 33,162  L 33,163  Z  " style="fill:rgb(0, 0, 0); fill-opacity:0.824; stroke:none;" />
 <path d="  M 46,227  L 46,226  L 45,226  L 45,227  Z  " style="fill:rgb(0, 0, 0); fill-opacity:0.824; stroke:none;" />
 <path d="  M 214,182  L 215,182  L 215,181  L 214,181  Z  " style="fill:rgb(0, 0, 0); fill-opacity:0.824; stroke:none;" />
 <path d="  M 29,156  L 29,157  L 30,157  L 30,156  Z  " style="fill:rgb(0, 0, 0); fill-opacity:0.827; stroke:none;" />
 <path d="  M 31,144  L 31,143  L 30,143  L 30,144  Z  " style="fill:rgb(0, 0, 0); fill-opacity:0.827; stroke:none;" />
 <path d="  M 34,160  L 33,160  L 33,161  L 34,161  Z  " style="fill:rgb(0, 0, 0); fill-opacity:0.827; stroke:none;" />
 <path d="  M 34,148  L 34,149  L 35,149  L 35,148  Z  " style="fill:rgb(0, 0, 0); fill-opacity:0.827; stroke:none;" />
 <path d="  M 75,240  L 75,239  L 74,239  L 74,240  Z  " style="fill:rgb(0, 0, 0); fill-opacity:0.827; stroke:none;" />
 <path d="  M 184,116  L 184,115  L 183,115  L 183,116  Z  " style="fill:rgb(0, 0, 0); fill-opacity:0.827; stroke:none;" />
 <path d="  M 29,158  L 30,158  L 30,157  L 29,157  Z  " style="fill:rgb(0, 0, 0); fill-opacity:0.918; stroke:none;" />
 <path d="  M 31,205  L 32,205  L 32,204  L 31,204  Z  " style="fill:rgb(0, 0, 0); fill-opacity:0.918; stroke:none;" />
 <path d="  M 33,159  L 33,160  L 34,160  L 34,159  Z  " style="fill:rgb(0, 0, 0); fill-opacity:0.918; stroke:none;" />
 <path d="  M 33,192  L 34,192  L 34,191  L 33,191  Z  " style="fill:rgb(0, 0, 0); fill-opacity:0.918; stroke:none;" />
 <path d="  M 37,205  L 36,205  L 36,206  L 37,206  Z  " style="fill:rgb(0, 0, 0); fill-opacity:0.918; stroke:none;" />
 <path d="  M 34,193  L 33,193  L 33,159  L 34,159  L 34,146  L 35,146  L 35,118  L 36,118  L 36,106  L 37,106  L 37,94  L 33,94  L 33,105  L 32,105  L 32,117  L 31,117  L 31,146  L 30,146  L 30,158  L 29,158  L 29,193  L 30,193  L 30,199  L 31,199  L 31,203  L 32,203  L 32,207  L 33,207  L 33,211  L 34,211  L 34,214  L 35,214  L 35,217  L 36,217  L 36,220  L 37,220  L 37,222  L 38,222  L 38,224  L 39,224  L 39,225  L 40,225  L 40,227  L 41,227  L 41,229  L 42,229  L 42,231  L 43,231  L 43,232  L 45,232  L 45,234  L 47,234  L 47,236  L 49,236  L 49,238  L 51,238  L 51,239  L 52,239  L 52,240  L 53,240  L 53,241  L 55,241  L 55,242  L 56,242  L 56,241  L 57,241  L 57,242  L 60,242  L 60,243  L 62,243  L 62,244  L 64,244  L 64,245  L 65,245  L 65,244  L 72,244  L 72,242  L 73,242  L 73,240  L 74,240  L 74,237  L 75,237  L 75,234  L 76,234  L 76,229  L 72,229  L 72,230  L 71,230  L 71,234  L 70,234  L 70,237  L 69,237  L 69,239  L 68,239  L 68,240  L 64,240  L 64,239  L 62,239  L 62,238  L 57,238  L 57,237  L 55,237  L 55,236  L 53,236  L 53,235  L 52,235  L 52,234  L 51,234  L 51,232  L 49,232  L 49,230  L 47,230  L 47,229  L 46,229  L 46,227  L 45,227  L 45,225  L 44,225  L 44,223  L 43,223  L 43,222  L 42,222  L 42,220  L 41,220  L 41,219  L 40,219  L 40,216  L 39,216  L 39,213  L 38,213  L 38,210  L 37,210  L 37,206  L 36,206  L 36,203  L 35,203  L 35,199  L 34,199  Z  " style="fill:rgb(0, 0, 0); fill-opacity:1.000; stroke:none;" />
 <path d="  M 190,132  L 191,132  L 191,135  L 192,135  L 192,137  L 193,137  L 193,139  L 194,139  L 194,140  L 195,140  L 195,142  L 196,142  L 196,144  L 197,144  L 197,147  L 198,147  L 198,149  L 199,149  L 199,150  L 200,150  L 200,152  L 201,152  L 201,155  L 202,155  L 202,158  L 203,158  L 203,161  L 204,161  L 204,164  L 205,164  L 205,167  L 206,167  L 206,171  L 207,171  L 207,176  L 208,176  L 208,179  L 209,179  L 209,184  L 210,184  L 210,192  L 209,192  L 209,194  L 208,194  L 208,196  L 207,196  L 207,198  L 206,198  L 206,201  L 204,201  L 204,202  L 202,202  L 202,203  L 201,203  L 201,204  L 200,204  L 200,205  L 199,205  L 199,206  L 198,206  L 198,207  L 197,207  L 197,208  L 196,208  L 196,210  L 195,210  L 195,211  L 194,211  L 194,213  L 195,213  L 195,214  L 197,214  L 197,213  L 198,213  L 198,212  L 201,212  L 201,210  L 202,210  L 202,209  L 203,209  L 203,208  L 204,208  L 204,206  L 206,206  L 206,205  L 207,205  L 207,204  L 209,204  L 209,203  L 210,203  L 210,201  L 211,201  L 211,199  L 212,199  L 212,196  L 213,196  L 213,194  L 214,194  L 214,181  L 213,181  L 213,178  L 212,178  L 212,174  L 211,174  L 211,170  L 210,170  L 210,166  L 209,166  L 209,163  L 208,163  L 208,160  L 207,160  L 207,157  L 206,157  L 206,154  L 205,154  L 205,151  L 204,151  L 204,150  L 203,150  L 203,147  L 202,147  L 202,145  L 201,145  L 201,142  L 200,142  L 200,140  L 199,140  L 199,139  L 198,139  L 198,137  L 197,137  L 197,135  L 196,135  L 196,134  L 195,134  L 195,131  L 194,131  L 194,127  L 193,127  L 193,124  L 192,124  L 192,122  L 191,122  L 191,120  L 190,120  L 190,117  L 189,117  L 189,115  L 188,115  L 188,114  L 187,114  L 187,112  L 186,112  L 186,109  L 185,109  L 185,104  L 184,104  L 184,100  L 180,100  L 180,105  L 181,105  L 181,110  L 182,110  L 182,111  L 181,111  L 181,112  L 182,112  L 182,114  L 183,114  L 183,115  L 184,115  L 184,117  L 185,117  L 185,119  L 186,119  L 186,122  L 187,122  L 187,124  L 188,124  L 188,125  L 189,125  L 189,128  L 190,128  Z  " style="fill:rgb(0, 0, 0); fill-opacity:1.000; stroke:none;" />
 <path d="  M 30,193  L 29,193  L 29,194  L 30,194  Z  " style="fill:rgb(0, 0, 0); fill-opacity:0.957; stroke:none;" />
 <path d="  M 34,192  L 33,192  L 33,193  L 34,193  Z  " style="fill:rgb(0, 0, 0); fill-opacity:0.957; stroke:none;" />
 <path d="  M 51,240  L 52,240  L 52,239  L 51,239  Z  " style="fill:rgb(0, 0, 0); fill-opacity:0.957; stroke:none;" />
 <path d="  M 192,124  L 193,124  L 193,123  L 192,123  Z  " style="fill:rgb(0, 0, 0); fill-opacity:0.957; stroke:none;" />
 <path d="  M 208,160  L 208,159  L 207,159  L 207,160  Z  " style="fill:rgb(0, 0, 0); fill-opacity:0.957; stroke:none;" />
 <path d="  M 208,162  L 208,163  L 209,163  L 209,162  Z  " style="fill:rgb(0, 0, 0); fill-opacity:0.957; stroke:none;" />
 <path d="  M 213,197  L 213,196  L 212,196  L 212,197  Z  " style="fill:rgb(0, 0, 0); fill-opacity:0.957; stroke:none;" />
 <path d="  M 214,180  L 213,180  L 213,181  L 214,181  Z  " style="fill:rgb(0, 0, 0); fill-opacity:0.957; stroke:none;" />
 <path d="  M 29,195  L 30,195  L 30,194  L 29,194  Z  " style="fill:rgb(0, 0, 0); fill-opacity:0.831; stroke:none;" />
 <path d="  M 29,195  L 29,196  L 30,196  L 30,195  Z  " style="fill:rgb(0, 0, 0); fill-opacity:0.980; stroke:none;" />
 <path d="  M 31,200  L 31,199  L 30,199  L 30,200  Z  " style="fill:rgb(0, 0, 0); fill-opacity:0.980; stroke:none;" />
 <path d="  M 30,196  L 29,196  L 29,197  L 30,197  Z  " style="fill:rgb(0, 0, 0); fill-opacity:0.875; stroke:none;" />
 <path d="  M 32,112  L 32,111  L 31,111  L 31,112  Z  " style="fill:rgb(0, 0, 0); fill-opacity:0.875; stroke:none;" />
 <path d="  M 37,98  L 38,98  L 38,93  L 32,93  L 32,98  L 33,98  L 33,94  L 37,94  Z  " style="fill:rgb(0, 0, 0); fill-opacity:0.875; stroke:none;" />
 <path d="  M 34,197  L 34,198  L 35,198  L 35,197  Z  " style="fill:rgb(0, 0, 0); fill-opacity:0.875; stroke:none;" />
 <path d="  M 37,108  L 36,108  L 36,109  L 37,109  Z  " style="fill:rgb(0, 0, 0); fill-opacity:0.875; stroke:none;" />
 <path d="  M 70,233  L 71,233  L 71,231  L 70,231  Z  " style="fill:rgb(0, 0, 0); fill-opacity:0.875; stroke:none;" />
 <path d="  M 77,228  L 71,228  L 71,229  L 77,229  Z  " style="fill:rgb(0, 0, 0); fill-opacity:0.875; stroke:none;" />
 <path d="  M 72,244  L 71,244  L 71,245  L 72,245  Z  " style="fill:rgb(0, 0, 0); fill-opacity:0.875; stroke:none;" />
 <path d="  M 73,244  L 73,243  L 72,243  L 72,244  Z  " style="fill:rgb(0, 0, 0); fill-opacity:0.875; stroke:none;" />
 <path d="  M 179,100  L 179,101  L 180,101  L 180,100  Z  " style="fill:rgb(0, 0, 0); fill-opacity:0.875; stroke:none;" />
 <path d="  M 184,100  L 184,101  L 185,101  L 185,100  Z  " style="fill:rgb(0, 0, 0); fill-opacity:0.875; stroke:none;" />
 <path d="  M 29,197  L 29,198  L 30,198  L 30,197  Z  " style="fill:rgb(0, 0, 0); fill-opacity:0.702; stroke:none;" />
 <path d="  M 30,124  L 31,124  L 31,123  L 30,123  Z  " style="fill:rgb(0, 0, 0); fill-opacity:0.702; stroke:none;" />
 <path d="  M 30,137  L 30,138  L 31,138  L 31,137  Z  " style="fill:rgb(0, 0, 0); fill-opacity:0.702; stroke:none;" />
 <path d="  M 36,126  L 35,126  L 35,127  L 36,127  Z  " style="fill:rgb(0, 0, 0); fill-opacity:0.702; stroke:none;" />
 <path d="  M 35,141  L 36,141  L 36,140  L 35,140  Z  " style="fill:rgb(0, 0, 0); fill-opacity:0.702; stroke:none;" />
 <path d="  M 37,205  L 37,204  L 36,204  L 36,205  Z  " style="fill:rgb(0, 0, 0); fill-opacity:0.702; stroke:none;" />
 <path d="  M 181,107  L 180,107  L 180,108  L 181,108  Z  " style="fill:rgb(0, 0, 0); fill-opacity:0.702; stroke:none;" />
 <path d="  M 212,172  L 211,172  L 211,173  L 212,173  Z  " style="fill:rgb(0, 0, 0); fill-opacity:0.702; stroke:none;" />
 <path d="  M 30,198  L 29,198  L 29,199  L 30,199  Z  " style="fill:rgb(0, 0, 0); fill-opacity:0.475; stroke:none;" />
 <path d="  M 35,196  L 35,195  L 34,195  L 34,196  Z  " style="fill:rgb(0, 0, 0); fill-opacity:0.475; stroke:none;" />
 <path d="  M 45,226  L 46,226  L 46,225  L 45,225  Z  " style="fill:rgb(0, 0, 0); fill-opacity:0.475; stroke:none;" />
 <path d="  M 55,235  L 54,235  L 54,236  L 55,236  Z  " style="fill:rgb(0, 0, 0); fill-opacity:0.475; stroke:none;" />
 <path d="  M 29,200  L 30,200  L 30,199  L 29,199  Z  " style="fill:rgb(0, 0, 0); fill-opacity:0.212; stroke:none;" />
 <path d="  M 30,202  L 30,203  L 31,203  L 31,202  Z  " style="fill:rgb(0, 0, 0); fill-opacity:0.212; stroke:none;" />
 <path d="  M 36,200  L 36,199  L 35,199  L 35,200  Z  " style="fill:rgb(0, 0, 0); fill-opacity:0.212; stroke:none;" />
 <path d="  M 30,118  L 31,118  L 31,117  L 30,117  Z  " style="fill:rgb(0, 0, 0); fill-opacity:0.004; stroke:none;" />
 <path d="  M 36,118  L 37,118  L 37,117  L 36,117  Z  " style="fill:rgb(0, 0, 0); fill-opacity:0.004; stroke:none;" />
 <path d="  M 31,119  L 31,118  L 30,118  L 30,119  Z  " style="fill:rgb(0, 0, 0); fill-opacity:0.071; stroke:none;" />
 <path d="  M 36,116  L 36,117  L 37,117  L 37,116  Z  " style="fill:rgb(0, 0, 0); fill-opacity:0.071; stroke:none;" />
 <path d="  M 31,119  L 30,119  L 30,120  L 31,120  Z  " style="fill:rgb(0, 0, 0); fill-opacity:0.137; stroke:none;" />
 <path d="  M 36,116  L 37,116  L 37,115  L 36,115  Z  " style="fill:rgb(0, 0, 0); fill-opacity:0.137; stroke:none;" />
 <path d="  M 30,121  L 31,121  L 31,120  L 30,120  Z  " style="fill:rgb(0, 0, 0); fill-opacity:0.204; stroke:none;" />
 <path d="  M 37,114  L 36,114  L 36,115  L 37,115  Z  " style="fill:rgb(0, 0, 0); fill-opacity:0.204; stroke:none;" />
 <path d="  M 187,124  L 187,123  L 186,123  L 186,124  Z  " style="fill:rgb(0, 0, 0); fill-opacity:0.204; stroke:none;" />
 <path d="  M 197,148  L 197,149  L 198,149  L 198,148  Z  " style="fill:rgb(0, 0, 0); fill-opacity:0.204; stroke:none;" />
 <path d="  M 206,175  L 206,176  L 207,176  L 207,175  Z  " style="fill:rgb(0, 0, 0); fill-opacity:0.204; stroke:none;" />
 <path d="  M 31,121  L 30,121  L 30,122  L 31,122  Z  " style="fill:rgb(0, 0, 0); fill-opacity:0.271; stroke:none;" />
 <path d="  M 37,114  L 37,113  L 36,113  L 36,114  Z  " style="fill:rgb(0, 0, 0); fill-opacity:0.271; stroke:none;" />
 <path d="  M 30,124  L 30,125  L 31,125  L 31,124  Z  " style="fill:rgb(0, 0, 0); fill-opacity:0.737; stroke:none;" />
 <path d="  M 30,138  L 30,139  L 31,139  L 31,138  Z  " style="fill:rgb(0, 0, 0); fill-opacity:0.737; stroke:none;" />
 <path d="  M 31,113  L 31,114  L 32,114  L 32,113  Z  " style="fill:rgb(0, 0, 0); fill-opacity:0.737; stroke:none;" />
 <path d="  M 35,122  L 36,122  L 36,121  L 35,121  Z  " style="fill:rgb(0, 0, 0); fill-opacity:0.737; stroke:none;" />
 <path d="  M 35,125  L 35,126  L 36,126  L 36,125  Z  " style="fill:rgb(0, 0, 0); fill-opacity:0.737; stroke:none;" />
 <path d="  M 35,139  L 35,140  L 36,140  L 36,139  Z  " style="fill:rgb(0, 0, 0); fill-opacity:0.737; stroke:none;" />
 <path d="  M 38,225  L 39,225  L 39,224  L 38,224  Z  " style="fill:rgb(0, 0, 0); fill-opacity:0.737; stroke:none;" />
 <path d="  M 194,140  L 194,139  L 193,139  L 193,140  Z  " style="fill:rgb(0, 0, 0); fill-opacity:0.737; stroke:none;" />
 <path d="  M 213,180  L 214,180  L 214,179  L 213,179  Z  " style="fill:rgb(0, 0, 0); fill-opacity:0.737; stroke:none;" />
 <path d="  M 31,126  L 31,125  L 30,125  L 30,126  Z  " style="fill:rgb(0, 0, 0); fill-opacity:0.769; stroke:none;" />
 <path d="  M 36,124  L 35,124  L 35,125  L 36,125  Z  " style="fill:rgb(0, 0, 0); fill-opacity:0.769; stroke:none;" />
 <path d="  M 186,122  L 186,123  L 187,123  L 187,122  Z  " style="fill:rgb(0, 0, 0); fill-opacity:0.769; stroke:none;" />
 <path d="  M 188,113  L 187,113  L 187,114  L 188,114  Z  " style="fill:rgb(0, 0, 0); fill-opacity:0.769; stroke:none;" />
 <path d="  M 192,122  L 192,121  L 191,121  L 191,122  Z  " style="fill:rgb(0, 0, 0); fill-opacity:0.769; stroke:none;" />
 <path d="  M 197,148  L 198,148  L 198,147  L 197,147  Z  " style="fill:rgb(0, 0, 0); fill-opacity:0.769; stroke:none;" />
 <path d="  M 202,147  L 203,147  L 203,146  L 202,146  Z  " style="fill:rgb(0, 0, 0); fill-opacity:0.769; stroke:none;" />
 <path d="  M 31,126  L 30,126  L 30,127  L 31,127  Z  " style="fill:rgb(0, 0, 0); fill-opacity:0.800; stroke:none;" />
 <path d="  M 32,111  L 32,110  L 31,110  L 31,111  Z  " style="fill:rgb(0, 0, 0); fill-opacity:0.800; stroke:none;" />
 <path d="  M 36,124  L 36,123  L 35,123  L 35,124  Z  " style="fill:rgb(0, 0, 0); fill-opacity:0.800; stroke:none;" />
 <path d="  M 37,109  L 36,109  L 36,110  L 37,110  Z  " style="fill:rgb(0, 0, 0); fill-opacity:0.800; stroke:none;" />
 <path d="  M 31,140  L 31,139  L 30,139  L 30,140  Z  " style="fill:rgb(0, 0, 0); fill-opacity:0.773; stroke:none;" />
 <path d="  M 35,150  L 34,150  L 34,151  L 35,151  Z  " style="fill:rgb(0, 0, 0); fill-opacity:0.773; stroke:none;" />
 <path d="  M 36,138  L 35,138  L 35,139  L 36,139  Z  " style="fill:rgb(0, 0, 0); fill-opacity:0.773; stroke:none;" />
 <path d="  M 31,140  L 30,140  L 30,141  L 31,141  Z  " style="fill:rgb(0, 0, 0); fill-opacity:0.808; stroke:none;" />
 <path d="  M 36,137  L 35,137  L 35,138  L 36,138  Z  " style="fill:rgb(0, 0, 0); fill-opacity:0.808; stroke:none;" />
 <path d="  M 31,141  L 30,141  L 30,142  L 31,142  Z  " style="fill:rgb(0, 0, 0); fill-opacity:0.843; stroke:none;" />
 <path d="  M 195,140  L 194,140  L 194,141  L 195,141  Z  " style="fill:rgb(0, 0, 0); fill-opacity:0.843; stroke:none;" />
 <path d="  M 30,142  L 30,143  L 31,143  L 31,142  Z  " style="fill:rgb(0, 0, 0); fill-opacity:0.753; stroke:none;" />
 <path d="  M 42,219  L 41,219  L 41,220  L 42,220  Z  " style="fill:rgb(0, 0, 0); fill-opacity:0.753; stroke:none;" />
 <path d="  M 188,126  L 188,127  L 189,127  L 189,126  Z  " style="fill:rgb(0, 0, 0); fill-opacity:0.753; stroke:none;" />
 <path d="  M 30,144  L 30,145  L 31,145  L 31,144  Z  " style="fill:rgb(0, 0, 0); fill-opacity:0.898; stroke:none;" />
 <path d="  M 34,148  L 35,148  L 35,147  L 34,147  Z  " style="fill:rgb(0, 0, 0); fill-opacity:0.898; stroke:none;" />
 <path d="  M 194,211  L 193,211  L 193,212  L 194,212  Z  " style="fill:rgb(0, 0, 0); fill-opacity:0.898; stroke:none;" />
 <path d="  M 197,215  L 197,214  L 196,214  L 196,215  Z  " style="fill:rgb(0, 0, 0); fill-opacity:0.898; stroke:none;" />
 <path d="  M 30,145  L 30,146  L 31,146  L 31,145  Z  " style="fill:rgb(0, 0, 0); fill-opacity:0.969; stroke:none;" />
 <path d="  M 35,147  L 35,146  L 34,146  L 34,147  Z  " style="fill:rgb(0, 0, 0); fill-opacity:0.969; stroke:none;" />
 <path d="  M 52,240  L 52,241  L 53,241  L 53,240  Z  " style="fill:rgb(0, 0, 0); fill-opacity:0.969; stroke:none;" />
 <path d="  M 60,242  L 59,242  L 59,243  L 60,243  Z  " style="fill:rgb(0, 0, 0); fill-opacity:0.969; stroke:none;" />
 <path d="  M 67,239  L 66,239  L 66,240  L 67,240  Z  " style="fill:rgb(0, 0, 0); fill-opacity:0.969; stroke:none;" />
 <path d="  M 67,244  L 66,244  L 66,245  L 67,245  Z  " style="fill:rgb(0, 0, 0); fill-opacity:0.969; stroke:none;" />
 <path d="  M 71,230  L 72,230  L 72,229  L 71,229  Z  " style="fill:rgb(0, 0, 0); fill-opacity:0.969; stroke:none;" />
 <path d="  M 209,187  L 210,187  L 210,186  L 209,186  Z  " style="fill:rgb(0, 0, 0); fill-opacity:0.969; stroke:none;" />
 <path d="  M 212,177  L 212,178  L 213,178  L 213,177  Z  " style="fill:rgb(0, 0, 0); fill-opacity:0.969; stroke:none;" />
 <path d="  M 214,186  L 214,187  L 215,187  L 215,186  Z  " style="fill:rgb(0, 0, 0); fill-opacity:0.969; stroke:none;" />
 <path d="  M 31,201  L 31,200  L 30,200  L 30,201  Z  " style="fill:rgb(0, 0, 0); fill-opacity:0.698; stroke:none;" />
 <path d="  M 185,106  L 185,107  L 186,107  L 186,106  Z  " style="fill:rgb(0, 0, 0); fill-opacity:0.698; stroke:none;" />
 <path d="  M 206,174  L 207,174  L 207,173  L 206,173  Z  " style="fill:rgb(0, 0, 0); fill-opacity:0.698; stroke:none;" />
 <path d="  M 30,201  L 30,202  L 31,202  L 31,201  Z  " style="fill:rgb(0, 0, 0); fill-opacity:0.455; stroke:none;" />
 <path d="  M 35,201  L 36,201  L 36,200  L 35,200  Z  " style="fill:rgb(0, 0, 0); fill-opacity:0.455; stroke:none;" />
 <path d="  M 30,203  L 30,204  L 31,204  L 31,203  Z  " style="fill:rgb(0, 0, 0); fill-opacity:0.047; stroke:none;" />
 <path d="  M 32,106  L 32,105  L 31,105  L 31,106  Z  " style="fill:rgb(0, 0, 0); fill-opacity:0.016; stroke:none;" />
 <path d="  M 37,106  L 38,106  L 38,105  L 37,105  Z  " style="fill:rgb(0, 0, 0); fill-opacity:0.016; stroke:none;" />
 <path d="  M 31,107  L 32,107  L 32,106  L 31,106  Z  " style="fill:rgb(0, 0, 0); fill-opacity:0.129; stroke:none;" />
 <path d="  M 37,105  L 38,105  L 38,104  L 37,104  Z  " style="fill:rgb(0, 0, 0); fill-opacity:0.129; stroke:none;" />
 <path d="  M 194,127  L 194,128  L 195,128  L 195,127  Z  " style="fill:rgb(0, 0, 0); fill-opacity:0.129; stroke:none;" />
 <path d="  M 31,107  L 31,108  L 32,108  L 32,107  Z  " style="fill:rgb(0, 0, 0); fill-opacity:0.498; stroke:none;" />
 <path d="  M 36,113  L 37,113  L 37,112  L 36,112  Z  " style="fill:rgb(0, 0, 0); fill-opacity:0.498; stroke:none;" />
 <path d="  M 31,108  L 31,109  L 32,109  L 32,108  Z  " style="fill:rgb(0, 0, 0); fill-opacity:0.612; stroke:none;" />
 <path d="  M 37,111  L 36,111  L 36,112  L 37,112  Z  " style="fill:rgb(0, 0, 0); fill-opacity:0.612; stroke:none;" />
 <path d="  M 199,151  L 199,152  L 200,152  L 200,151  Z  " style="fill:rgb(0, 0, 0); fill-opacity:0.612; stroke:none;" />
 <path d="  M 31,109  L 31,110  L 32,110  L 32,109  Z  " style="fill:rgb(0, 0, 0); fill-opacity:0.714; stroke:none;" />
 <path d="  M 34,212  L 33,212  L 33,213  L 34,213  Z  " style="fill:rgb(0, 0, 0); fill-opacity:0.714; stroke:none;" />
 <path d="  M 36,201  L 35,201  L 35,202  L 36,202  Z  " style="fill:rgb(0, 0, 0); fill-opacity:0.714; stroke:none;" />
 <path d="  M 37,111  L 37,110  L 36,110  L 36,111  Z  " style="fill:rgb(0, 0, 0); fill-opacity:0.714; stroke:none;" />
 <path d="  M 38,212  L 39,212  L 39,211  L 38,211  Z  " style="fill:rgb(0, 0, 0); fill-opacity:0.714; stroke:none;" />
 <path d="  M 212,177  L 213,177  L 213,176  L 212,176  Z  " style="fill:rgb(0, 0, 0); fill-opacity:0.714; stroke:none;" />
 <path d="  M 31,114  L 31,115  L 32,115  L 32,114  Z  " style="fill:rgb(0, 0, 0); fill-opacity:0.804; stroke:none;" />
 <path d="  M 35,120  L 35,121  L 36,121  L 36,120  Z  " style="fill:rgb(0, 0, 0); fill-opacity:0.804; stroke:none;" />
 <path d="  M 54,242  L 55,242  L 55,241  L 54,241  Z  " style="fill:rgb(0, 0, 0); fill-opacity:0.804; stroke:none;" />
 <path d="  M 32,116  L 32,115  L 31,115  L 31,116  Z  " style="fill:rgb(0, 0, 0); fill-opacity:0.871; stroke:none;" />
 <path d="  M 33,162  L 34,162  L 34,161  L 33,161  Z  " style="fill:rgb(0, 0, 0); fill-opacity:0.871; stroke:none;" />
 <path d="  M 36,119  L 35,119  L 35,120  L 36,120  Z  " style="fill:rgb(0, 0, 0); fill-opacity:0.871; stroke:none;" />
 <path d="  M 31,116  L 31,117  L 32,117  L 32,116  Z  " style="fill:rgb(0, 0, 0); fill-opacity:0.937; stroke:none;" />
 <path d="  M 36,118  L 35,118  L 35,119  L 36,119  Z  " style="fill:rgb(0, 0, 0); fill-opacity:0.937; stroke:none;" />
 <path d="  M 58,237  L 58,238  L 59,238  L 59,237  Z  " style="fill:rgb(0, 0, 0); fill-opacity:0.937; stroke:none;" />
 <path d="  M 77,234  L 77,229  L 76,229  L 76,234  Z  " style="fill:rgb(0, 0, 0); fill-opacity:0.937; stroke:none;" />
 <path d="  M 208,177  L 208,176  L 207,176  L 207,177  Z  " style="fill:rgb(0, 0, 0); fill-opacity:0.937; stroke:none;" />
 <path d="  M 209,185  L 209,186  L 210,186  L 210,185  Z  " style="fill:rgb(0, 0, 0); fill-opacity:0.937; stroke:none;" />
 <path d="  M 210,187  L 209,187  L 209,189  L 210,189  Z  " style="fill:rgb(0, 0, 0); fill-opacity:0.937; stroke:none;" />
 <path d="  M 214,186  L 215,186  L 215,185  L 214,185  Z  " style="fill:rgb(0, 0, 0); fill-opacity:0.937; stroke:none;" />
 <path d="  M 214,187  L 214,189  L 215,189  L 215,187  Z  " style="fill:rgb(0, 0, 0); fill-opacity:0.937; stroke:none;" />
 <path d="  M 32,203  L 31,203  L 31,204  L 32,204  Z  " style="fill:rgb(0, 0, 0); fill-opacity:0.992; stroke:none;" />
 <path d="  M 33,207  L 32,207  L 32,208  L 33,208  Z  " style="fill:rgb(0, 0, 0); fill-opacity:0.992; stroke:none;" />
 <path d="  M 36,202  L 35,202  L 35,203  L 36,203  Z  " style="fill:rgb(0, 0, 0); fill-opacity:0.992; stroke:none;" />
 <path d="  M 47,228  L 46,228  L 46,229  L 47,229  Z  " style="fill:rgb(0, 0, 0); fill-opacity:0.992; stroke:none;" />
 <path d="  M 46,234  L 46,235  L 47,235  L 47,234  Z  " style="fill:rgb(0, 0, 0); fill-opacity:0.992; stroke:none;" />
 <path d="  M 48,229  L 47,229  L 47,230  L 48,230  Z  " style="fill:rgb(0, 0, 0); fill-opacity:0.992; stroke:none;" />
 <path d="  M 49,231  L 49,232  L 50,232  L 50,231  Z  " style="fill:rgb(0, 0, 0); fill-opacity:0.992; stroke:none;" />
 <path d="  M 50,239  L 51,239  L 51,238  L 50,238  Z  " style="fill:rgb(0, 0, 0); fill-opacity:0.992; stroke:none;" />
 <path d="  M 52,234  L 52,233  L 51,233  L 51,234  Z  " style="fill:rgb(0, 0, 0); fill-opacity:0.992; stroke:none;" />
 <path d="  M 54,236  L 54,235  L 53,235  L 53,236  Z  " style="fill:rgb(0, 0, 0); fill-opacity:0.992; stroke:none;" />
 <path d="  M 56,242  L 57,242  L 57,241  L 56,241  Z  " style="fill:rgb(0, 0, 0); fill-opacity:0.992; stroke:none;" />
 <path d="  M 57,238  L 58,238  L 58,237  L 57,237  Z  " style="fill:rgb(0, 0, 0); fill-opacity:0.992; stroke:none;" />
 <path d="  M 67,240  L 68,240  L 68,239  L 67,239  Z  " style="fill:rgb(0, 0, 0); fill-opacity:0.992; stroke:none;" />
 <path d="  M 70,236  L 69,236  L 69,237  L 70,237  Z  " style="fill:rgb(0, 0, 0); fill-opacity:0.992; stroke:none;" />
 <path d="  M 179,102  L 180,102  L 180,101  L 179,101  Z  " style="fill:rgb(0, 0, 0); fill-opacity:0.992; stroke:none;" />
 <path d="  M 186,108  L 185,108  L 185,109  L 186,109  Z  " style="fill:rgb(0, 0, 0); fill-opacity:0.992; stroke:none;" />
 <path d="  M 195,209  L 195,210  L 196,210  L 196,209  Z  " style="fill:rgb(0, 0, 0); fill-opacity:0.992; stroke:none;" />
 <path d="  M 206,171  L 206,172  L 207,172  L 207,171  Z  " style="fill:rgb(0, 0, 0); fill-opacity:0.992; stroke:none;" />
 <path d="  M 31,205  L 31,206  L 32,206  L 32,205  Z  " style="fill:rgb(0, 0, 0); fill-opacity:0.706; stroke:none;" />
 <path d="  M 34,197  L 35,197  L 35,196  L 34,196  Z  " style="fill:rgb(0, 0, 0); fill-opacity:0.706; stroke:none;" />
 <path d="  M 32,206  L 31,206  L 31,207  L 32,207  Z  " style="fill:rgb(0, 0, 0); fill-opacity:0.357; stroke:none;" />
 <path d="  M 37,203  L 36,203  L 36,204  L 37,204  Z  " style="fill:rgb(0, 0, 0); fill-opacity:0.357; stroke:none;" />
 <path d="  M 192,136  L 191,136  L 191,137  L 192,137  Z  " style="fill:rgb(0, 0, 0); fill-opacity:0.357; stroke:none;" />
 <path d="  M 32,98  L 32,99  L 33,99  L 33,98  Z  " style="fill:rgb(0, 0, 0); fill-opacity:0.906; stroke:none;" />
 <path d="  M 37,99  L 38,99  L 38,98  L 37,98  Z  " style="fill:rgb(0, 0, 0); fill-opacity:0.906; stroke:none;" />
 <path d="  M 212,199  L 211,199  L 211,200  L 212,200  Z  " style="fill:rgb(0, 0, 0); fill-opacity:0.906; stroke:none;" />
 <path d="  M 33,99  L 32,99  L 32,100  L 33,100  Z  " style="fill:rgb(0, 0, 0); fill-opacity:0.675; stroke:none;" />
 <path d="  M 38,103  L 38,102  L 37,102  L 37,103  Z  " style="fill:rgb(0, 0, 0); fill-opacity:0.675; stroke:none;" />
 <path d="  M 32,102  L 33,102  L 33,101  L 32,101  Z  " style="fill:rgb(0, 0, 0); fill-opacity:0.784; stroke:none;" />
 <path d="  M 37,101  L 38,101  L 38,100  L 37,100  Z  " style="fill:rgb(0, 0, 0); fill-opacity:0.784; stroke:none;" />
 <path d="  M 32,102  L 32,103  L 33,103  L 33,102  Z  " style="fill:rgb(0, 0, 0); fill-opacity:0.839; stroke:none;" />
 <path d="  M 38,99  L 37,99  L 37,100  L 38,100  Z  " style="fill:rgb(0, 0, 0); fill-opacity:0.839; stroke:none;" />
 <path d="  M 56,237  L 56,236  L 55,236  L 55,237  Z  " style="fill:rgb(0, 0, 0); fill-opacity:0.839; stroke:none;" />
 <path d="  M 32,103  L 32,104  L 33,104  L 33,103  Z  " style="fill:rgb(0, 0, 0); fill-opacity:0.894; stroke:none;" />
 <path d="  M 70,234  L 69,234  L 69,235  L 70,235  Z  " style="fill:rgb(0, 0, 0); fill-opacity:0.894; stroke:none;" />
 <path d="  M 180,107  L 181,107  L 181,106  L 180,106  Z  " style="fill:rgb(0, 0, 0); fill-opacity:0.894; stroke:none;" />
 <path d="  M 207,172  L 206,172  L 206,173  L 207,173  Z  " style="fill:rgb(0, 0, 0); fill-opacity:0.894; stroke:none;" />
 <path d="  M 210,190  L 210,189  L 209,189  L 209,190  Z  " style="fill:rgb(0, 0, 0); fill-opacity:0.894; stroke:none;" />
 <path d="  M 33,104  L 32,104  L 32,105  L 33,105  Z  " style="fill:rgb(0, 0, 0); fill-opacity:0.902; stroke:none;" />
 <path d="  M 37,106  L 36,106  L 36,107  L 37,107  Z  " style="fill:rgb(0, 0, 0); fill-opacity:0.902; stroke:none;" />
 <path d="  M 37,220  L 36,220  L 36,221  L 37,221  Z  " style="fill:rgb(0, 0, 0); fill-opacity:0.902; stroke:none;" />
 <path d="  M 40,215  L 39,215  L 39,216  L 40,216  Z  " style="fill:rgb(0, 0, 0); fill-opacity:0.902; stroke:none;" />
 <path d="  M 63,244  L 63,245  L 64,245  L 64,244  Z  " style="fill:rgb(0, 0, 0); fill-opacity:0.902; stroke:none;" />
 <path d="  M 180,105  L 180,104  L 179,104  L 179,105  Z  " style="fill:rgb(0, 0, 0); fill-opacity:0.902; stroke:none;" />
 <path d="  M 184,102  L 185,102  L 185,101  L 184,101  Z  " style="fill:rgb(0, 0, 0); fill-opacity:0.902; stroke:none;" />
 <path d="  M 201,156  L 202,156  L 202,155  L 201,155  Z  " style="fill:rgb(0, 0, 0); fill-opacity:0.902; stroke:none;" />
 <path d="  M 205,151  L 205,150  L 204,150  L 204,151  Z  " style="fill:rgb(0, 0, 0); fill-opacity:0.902; stroke:none;" />
 <path d="  M 207,198  L 207,197  L 206,197  L 206,198  Z  " style="fill:rgb(0, 0, 0); fill-opacity:0.902; stroke:none;" />
 <path d="  M 32,209  L 33,209  L 33,208  L 32,208  Z  " style="fill:rgb(0, 0, 0); fill-opacity:0.596; stroke:none;" />
 <path d="  M 33,209  L 32,209  L 32,210  L 33,210  Z  " style="fill:rgb(0, 0, 0); fill-opacity:0.322; stroke:none;" />
 <path d="  M 37,207  L 37,208  L 38,208  L 38,207  Z  " style="fill:rgb(0, 0, 0); fill-opacity:0.322; stroke:none;" />
 <path d="  M 188,125  L 187,125  L 187,126  L 188,126  Z  " style="fill:rgb(0, 0, 0); fill-opacity:0.322; stroke:none;" />
 <path d="  M 189,130  L 189,131  L 190,131  L 190,130  Z  " style="fill:rgb(0, 0, 0); fill-opacity:0.322; stroke:none;" />
 <path d="  M 194,128  L 194,129  L 195,129  L 195,128  Z  " style="fill:rgb(0, 0, 0); fill-opacity:0.322; stroke:none;" />
 <path d="  M 198,150  L 198,151  L 199,151  L 199,150  Z  " style="fill:rgb(0, 0, 0); fill-opacity:0.322; stroke:none;" />
 <path d="  M 34,212  L 34,211  L 33,211  L 33,212  Z  " style="fill:rgb(0, 0, 0); fill-opacity:0.945; stroke:none;" />
 <path d="  M 39,212  L 38,212  L 38,213  L 39,213  Z  " style="fill:rgb(0, 0, 0); fill-opacity:0.945; stroke:none;" />
 <path d="  M 215,190  L 214,190  L 214,191  L 215,191  Z  " style="fill:rgb(0, 0, 0); fill-opacity:0.945; stroke:none;" />
 <path d="  M 33,214  L 34,214  L 34,213  L 33,213  Z  " style="fill:rgb(0, 0, 0); fill-opacity:0.310; stroke:none;" />
 <path d="  M 39,210  L 38,210  L 38,211  L 39,211  Z  " style="fill:rgb(0, 0, 0); fill-opacity:0.310; stroke:none;" />
 <path d="  M 35,150  L 35,149  L 34,149  L 34,150  Z  " style="fill:rgb(0, 0, 0); fill-opacity:0.757; stroke:none;" />
 <path d="  M 35,219  L 36,219  L 36,218  L 35,218  Z  " style="fill:rgb(0, 0, 0); fill-opacity:0.757; stroke:none;" />
 <path d="  M 41,218  L 41,217  L 40,217  L 40,218  Z  " style="fill:rgb(0, 0, 0); fill-opacity:0.757; stroke:none;" />
 <path d="  M 62,239  L 63,239  L 63,238  L 62,238  Z  " style="fill:rgb(0, 0, 0); fill-opacity:0.757; stroke:none;" />
 <path d="  M 201,153  L 200,153  L 200,154  L 201,154  Z  " style="fill:rgb(0, 0, 0); fill-opacity:0.757; stroke:none;" />
 <path d="  M 206,153  L 206,152  L 205,152  L 205,153  Z  " style="fill:rgb(0, 0, 0); fill-opacity:0.757; stroke:none;" />
 <path d="  M 210,204  L 210,203  L 209,203  L 209,204  Z  " style="fill:rgb(0, 0, 0); fill-opacity:0.757; stroke:none;" />
 <path d="  M 34,194  L 34,195  L 35,195  L 35,194  Z  " style="fill:rgb(0, 0, 0); fill-opacity:0.208; stroke:none;" />
 <path d="  M 35,198  L 34,198  L 34,199  L 35,199  Z  " style="fill:rgb(0, 0, 0); fill-opacity:0.984; stroke:none;" />
 <path d="  M 67,244  L 67,245  L 69,245  L 69,244  Z  " style="fill:rgb(0, 0, 0); fill-opacity:0.984; stroke:none;" />
 <path d="  M 69,235  L 69,236  L 70,236  L 70,235  Z  " style="fill:rgb(0, 0, 0); fill-opacity:0.984; stroke:none;" />
 <path d="  M 194,210  L 194,211  L 195,211  L 195,210  Z  " style="fill:rgb(0, 0, 0); fill-opacity:0.984; stroke:none;" />
 <path d="  M 198,214  L 198,213  L 197,213  L 197,214  Z  " style="fill:rgb(0, 0, 0); fill-opacity:0.984; stroke:none;" />
 <path d="  M 34,214  L 34,215  L 35,215  L 35,214  Z  " style="fill:rgb(0, 0, 0); fill-opacity:0.973; stroke:none;" />
 <path d="  M 38,209  L 37,209  L 37,210  L 38,210  Z  " style="fill:rgb(0, 0, 0); fill-opacity:0.973; stroke:none;" />
 <path d="  M 41,229  L 41,230  L 42,230  L 42,229  Z  " style="fill:rgb(0, 0, 0); fill-opacity:0.973; stroke:none;" />
 <path d="  M 66,244  L 65,244  L 65,245  L 66,245  Z  " style="fill:rgb(0, 0, 0); fill-opacity:0.973; stroke:none;" />
 <path d="  M 69,244  L 69,245  L 70,245  L 70,244  Z  " style="fill:rgb(0, 0, 0); fill-opacity:0.973; stroke:none;" />
 <path d="  M 76,236  L 76,235  L 75,235  L 75,236  Z  " style="fill:rgb(0, 0, 0); fill-opacity:0.973; stroke:none;" />
 <path d="  M 203,201  L 203,202  L 204,202  L 204,201  Z  " style="fill:rgb(0, 0, 0); fill-opacity:0.973; stroke:none;" />
 <path d="  M 215,183  L 215,182  L 214,182  L 214,183  Z  " style="fill:rgb(0, 0, 0); fill-opacity:0.973; stroke:none;" />
 <path d="  M 214,189  L 214,190  L 215,190  L 215,189  Z  " style="fill:rgb(0, 0, 0); fill-opacity:0.973; stroke:none;" />
 <path d="  M 34,216  L 35,216  L 35,215  L 34,215  Z  " style="fill:rgb(0, 0, 0); fill-opacity:0.494; stroke:none;" />
 <path d="  M 34,217  L 35,217  L 35,216  L 34,216  Z  " style="fill:rgb(0, 0, 0); fill-opacity:0.231; stroke:none;" />
 <path d="  M 36,220  L 36,219  L 35,219  L 35,220  Z  " style="fill:rgb(0, 0, 0); fill-opacity:0.231; stroke:none;" />
 <path d="  M 41,217  L 41,216  L 40,216  L 40,217  Z  " style="fill:rgb(0, 0, 0); fill-opacity:0.231; stroke:none;" />
 <path d="  M 60,243  L 60,244  L 61,244  L 61,243  Z  " style="fill:rgb(0, 0, 0); fill-opacity:0.231; stroke:none;" />
 <path d="  M 63,239  L 64,239  L 64,238  L 63,238  Z  " style="fill:rgb(0, 0, 0); fill-opacity:0.231; stroke:none;" />
 <path d="  M 206,155  L 207,155  L 207,154  L 206,154  Z  " style="fill:rgb(0, 0, 0); fill-opacity:0.231; stroke:none;" />
 <path d="  M 35,218  L 35,217  L 34,217  L 34,218  Z  " style="fill:rgb(0, 0, 0); fill-opacity:0.094; stroke:none;" />
 <path d="  M 62,237  L 61,237  L 61,238  L 62,238  Z  " style="fill:rgb(0, 0, 0); fill-opacity:0.094; stroke:none;" />
 <path d="  M 64,246  L 65,246  L 65,245  L 64,245  Z  " style="fill:rgb(0, 0, 0); fill-opacity:0.094; stroke:none;" />
 <path d="  M 185,122  L 186,122  L 186,121  L 185,121  Z  " style="fill:rgb(0, 0, 0); fill-opacity:0.094; stroke:none;" />
 <path d="  M 190,133  L 190,132  L 189,132  L 189,133  Z  " style="fill:rgb(0, 0, 0); fill-opacity:0.094; stroke:none;" />
 <path d="  M 195,126  L 194,126  L 194,127  L 195,127  Z  " style="fill:rgb(0, 0, 0); fill-opacity:0.094; stroke:none;" />
 <path d="  M 197,146  L 196,146  L 196,147  L 197,147  Z  " style="fill:rgb(0, 0, 0); fill-opacity:0.094; stroke:none;" />
 <path d="  M 206,198  L 205,198  L 205,199  L 206,199  Z  " style="fill:rgb(0, 0, 0); fill-opacity:0.094; stroke:none;" />
 <path d="  M 207,153  L 206,153  L 206,154  L 207,154  Z  " style="fill:rgb(0, 0, 0); fill-opacity:0.094; stroke:none;" />
 <path d="  M 212,199  L 213,199  L 213,198  L 212,198  Z  " style="fill:rgb(0, 0, 0); fill-opacity:0.094; stroke:none;" />
 <path d="  M 35,123  L 36,123  L 36,122  L 35,122  Z  " style="fill:rgb(0, 0, 0); fill-opacity:0.835; stroke:none;" />
 <path d="  M 38,223  L 38,222  L 37,222  L 37,223  Z  " style="fill:rgb(0, 0, 0); fill-opacity:0.835; stroke:none;" />
 <path d="  M 35,142  L 35,143  L 36,143  L 36,142  Z  " style="fill:rgb(0, 0, 0); fill-opacity:0.259; stroke:none;" />
 <path d="  M 181,111  L 180,111  L 180,112  L 181,112  Z  " style="fill:rgb(0, 0, 0); fill-opacity:0.259; stroke:none;" />
 <path d="  M 188,128  L 189,128  L 189,127  L 188,127  Z  " style="fill:rgb(0, 0, 0); fill-opacity:0.259; stroke:none;" />
 <path d="  M 190,135  L 191,135  L 191,134  L 190,134  Z  " style="fill:rgb(0, 0, 0); fill-opacity:0.259; stroke:none;" />
 <path d="  M 193,124  L 193,125  L 194,125  L 194,124  Z  " style="fill:rgb(0, 0, 0); fill-opacity:0.259; stroke:none;" />
 <path d="  M 196,132  L 196,131  L 195,131  L 195,132  Z  " style="fill:rgb(0, 0, 0); fill-opacity:0.259; stroke:none;" />
 <path d="  M 35,217  L 35,218  L 36,218  L 36,217  Z  " style="fill:rgb(0, 0, 0); fill-opacity:0.996; stroke:none;" />
 <path d="  M 40,218  L 40,219  L 41,219  L 41,218  Z  " style="fill:rgb(0, 0, 0); fill-opacity:0.996; stroke:none;" />
 <path d="  M 53,234  L 52,234  L 52,235  L 53,235  Z  " style="fill:rgb(0, 0, 0); fill-opacity:0.996; stroke:none;" />
 <path d="  M 74,237  L 74,238  L 75,238  L 75,237  Z  " style="fill:rgb(0, 0, 0); fill-opacity:0.996; stroke:none;" />
 <path d="  M 76,235  L 76,234  L 75,234  L 75,235  Z  " style="fill:rgb(0, 0, 0); fill-opacity:0.996; stroke:none;" />
 <path d="  M 181,106  L 181,105  L 180,105  L 180,106  Z  " style="fill:rgb(0, 0, 0); fill-opacity:0.996; stroke:none;" />
 <path d="  M 188,126  L 189,126  L 189,125  L 188,125  Z  " style="fill:rgb(0, 0, 0); fill-opacity:0.996; stroke:none;" />
 <path d="  M 191,133  L 191,132  L 190,132  L 190,133  Z  " style="fill:rgb(0, 0, 0); fill-opacity:0.996; stroke:none;" />
 <path d="  M 194,127  L 194,126  L 193,126  L 193,127  Z  " style="fill:rgb(0, 0, 0); fill-opacity:0.996; stroke:none;" />
 <path d="  M 196,134  L 196,133  L 195,133  L 195,134  Z  " style="fill:rgb(0, 0, 0); fill-opacity:0.996; stroke:none;" />
 <path d="  M 199,212  L 198,212  L 198,213  L 199,213  Z  " style="fill:rgb(0, 0, 0); fill-opacity:0.996; stroke:none;" />
 <path d="  M 200,153  L 201,153  L 201,152  L 200,152  Z  " style="fill:rgb(0, 0, 0); fill-opacity:0.996; stroke:none;" />
 <path d="  M 205,206  L 204,206  L 204,207  L 205,207  Z  " style="fill:rgb(0, 0, 0); fill-opacity:0.996; stroke:none;" />
 <path d="  M 205,153  L 205,154  L 206,154  L 206,153  Z  " style="fill:rgb(0, 0, 0); fill-opacity:0.996; stroke:none;" />
 <path d="  M 206,201  L 206,200  L 205,200  L 205,201  Z  " style="fill:rgb(0, 0, 0); fill-opacity:0.996; stroke:none;" />
 <path d="  M 208,179  L 208,180  L 209,180  L 209,179  Z  " style="fill:rgb(0, 0, 0); fill-opacity:0.996; stroke:none;" />
 <path d="  M 36,108  L 37,108  L 37,107  L 36,107  Z  " style="fill:rgb(0, 0, 0); fill-opacity:0.859; stroke:none;" />
 <path d="  M 187,125  L 188,125  L 188,124  L 187,124  Z  " style="fill:rgb(0, 0, 0); fill-opacity:0.859; stroke:none;" />
 <path d="  M 199,212  L 199,213  L 200,213  L 200,212  Z  " style="fill:rgb(0, 0, 0); fill-opacity:0.859; stroke:none;" />
 <path d="  M 36,222  L 37,222  L 37,221  L 36,221  Z  " style="fill:rgb(0, 0, 0); fill-opacity:0.514; stroke:none;" />
 <path d="  M 37,103  L 37,104  L 38,104  L 38,103  Z  " style="fill:rgb(0, 0, 0); fill-opacity:0.620; stroke:none;" />
 <path d="  M 38,209  L 38,208  L 37,208  L 37,209  Z  " style="fill:rgb(0, 0, 0); fill-opacity:0.659; stroke:none;" />
 <path d="  M 38,224  L 38,223  L 37,223  L 37,224  Z  " style="fill:rgb(0, 0, 0); fill-opacity:0.169; stroke:none;" />
 <path d="  M 193,139  L 193,138  L 192,138  L 192,139  Z  " style="fill:rgb(0, 0, 0); fill-opacity:0.169; stroke:none;" />
 <path d="  M 198,136  L 198,135  L 197,135  L 197,136  Z  " style="fill:rgb(0, 0, 0); fill-opacity:0.169; stroke:none;" />
 <path d="  M 38,225  L 38,226  L 39,226  L 39,225  Z  " style="fill:rgb(0, 0, 0); fill-opacity:0.090; stroke:none;" />
 <path d="  M 42,219  L 42,218  L 41,218  L 41,219  Z  " style="fill:rgb(0, 0, 0); fill-opacity:0.090; stroke:none;" />
 <path d="  M 42,233  L 43,233  L 43,232  L 42,232  Z  " style="fill:rgb(0, 0, 0); fill-opacity:0.090; stroke:none;" />
 <path d="  M 44,222  L 44,221  L 43,221  L 43,222  Z  " style="fill:rgb(0, 0, 0); fill-opacity:0.090; stroke:none;" />
 <path d="  M 65,246  L 66,246  L 66,245  L 65,245  Z  " style="fill:rgb(0, 0, 0); fill-opacity:0.090; stroke:none;" />
 <path d="  M 193,141  L 194,141  L 194,140  L 193,140  Z  " style="fill:rgb(0, 0, 0); fill-opacity:0.090; stroke:none;" />
 <path d="  M 196,134  L 197,134  L 197,133  L 196,133  Z  " style="fill:rgb(0, 0, 0); fill-opacity:0.090; stroke:none;" />
 <path d="  M 200,152  L 199,152  L 199,153  L 200,153  Z  " style="fill:rgb(0, 0, 0); fill-opacity:0.090; stroke:none;" />
 <path d="  M 203,148  L 204,148  L 204,147  L 203,147  Z  " style="fill:rgb(0, 0, 0); fill-opacity:0.090; stroke:none;" />
 <path d="  M 209,205  L 210,205  L 210,204  L 209,204  Z  " style="fill:rgb(0, 0, 0); fill-opacity:0.090; stroke:none;" />
 <path d="  M 39,226  L 40,226  L 40,225  L 39,225  Z  " style="fill:rgb(0, 0, 0); fill-opacity:0.867; stroke:none;" />
 <path d="  M 41,227  L 40,227  L 40,228  L 41,228  Z  " style="fill:rgb(0, 0, 0); fill-opacity:0.867; stroke:none;" />
 <path d="  M 214,192  L 215,192  L 215,191  L 214,191  Z  " style="fill:rgb(0, 0, 0); fill-opacity:0.867; stroke:none;" />
 <path d="  M 40,226  L 39,226  L 39,227  L 40,227  Z  " style="fill:rgb(0, 0, 0); fill-opacity:0.247; stroke:none;" />
 <path d="  M 51,239  L 50,239  L 50,240  L 51,240  Z  " style="fill:rgb(0, 0, 0); fill-opacity:0.247; stroke:none;" />
 <path d="  M 41,229  L 41,228  L 40,228  L 40,229  Z  " style="fill:rgb(0, 0, 0); fill-opacity:0.314; stroke:none;" />
 <path d="  M 41,231  L 42,231  L 42,230  L 41,230  Z  " style="fill:rgb(0, 0, 0); fill-opacity:0.314; stroke:none;" />
 <path d="  M 47,228  L 47,229  L 48,229  L 48,228  Z  " style="fill:rgb(0, 0, 0); fill-opacity:0.314; stroke:none;" />
 <path d="  M 52,233  L 52,234  L 53,234  L 53,233  Z  " style="fill:rgb(0, 0, 0); fill-opacity:0.314; stroke:none;" />
 <path d="  M 194,211  L 194,210  L 193,210  L 193,211  Z  " style="fill:rgb(0, 0, 0); fill-opacity:0.314; stroke:none;" />
 <path d="  M 195,210  L 195,209  L 194,209  L 194,210  Z  " style="fill:rgb(0, 0, 0); fill-opacity:0.314; stroke:none;" />
 <path d="  M 198,215  L 198,214  L 197,214  L 197,215  Z  " style="fill:rgb(0, 0, 0); fill-opacity:0.314; stroke:none;" />
 <path d="  M 199,214  L 199,213  L 198,213  L 198,214  Z  " style="fill:rgb(0, 0, 0); fill-opacity:0.314; stroke:none;" />
 <path d="  M 41,230  L 41,229  L 40,229  L 40,230  Z  " style="fill:rgb(0, 0, 0); fill-opacity:0.173; stroke:none;" />
 <path d="  M 43,221  L 43,220  L 42,220  L 42,221  Z  " style="fill:rgb(0, 0, 0); fill-opacity:0.173; stroke:none;" />
 <path d="  M 51,240  L 51,241  L 52,241  L 52,240  Z  " style="fill:rgb(0, 0, 0); fill-opacity:0.173; stroke:none;" />
 <path d="  M 69,235  L 68,235  L 68,236  L 69,236  Z  " style="fill:rgb(0, 0, 0); fill-opacity:0.173; stroke:none;" />
 <path d="  M 76,239  L 76,238  L 75,238  L 75,239  Z  " style="fill:rgb(0, 0, 0); fill-opacity:0.173; stroke:none;" />
 <path d="  M 76,236  L 77,236  L 77,235  L 76,235  Z  " style="fill:rgb(0, 0, 0); fill-opacity:0.173; stroke:none;" />
 <path d="  M 192,213  L 193,213  L 193,211  L 192,211  Z  " style="fill:rgb(0, 0, 0); fill-opacity:0.173; stroke:none;" />
 <path d="  M 194,213  L 193,213  L 193,214  L 194,214  Z  " style="fill:rgb(0, 0, 0); fill-opacity:0.173; stroke:none;" />
 <path d="  M 195,215  L 195,214  L 194,214  L 194,215  Z  " style="fill:rgb(0, 0, 0); fill-opacity:0.173; stroke:none;" />
 <path d="  M 197,216  L 197,215  L 195,215  L 195,216  Z  " style="fill:rgb(0, 0, 0); fill-opacity:0.173; stroke:none;" />
 <path d="  M 204,201  L 204,200  L 203,200  L 203,201  Z  " style="fill:rgb(0, 0, 0); fill-opacity:0.173; stroke:none;" />
 <path d="  M 207,183  L 208,183  L 208,181  L 207,181  Z  " style="fill:rgb(0, 0, 0); fill-opacity:0.173; stroke:none;" />
 <path d="  M 208,195  L 208,194  L 207,194  L 207,195  Z  " style="fill:rgb(0, 0, 0); fill-opacity:0.173; stroke:none;" />
 <path d="  M 208,205  L 207,205  L 207,206  L 208,206  Z  " style="fill:rgb(0, 0, 0); fill-opacity:0.173; stroke:none;" />
 <path d="  M 216,184  L 216,182  L 215,182  L 215,184  Z  " style="fill:rgb(0, 0, 0); fill-opacity:0.173; stroke:none;" />
 <path d="  M 42,221  L 42,222  L 43,222  L 43,221  Z  " style="fill:rgb(0, 0, 0); fill-opacity:0.851; stroke:none;" />
 <path d="  M 190,119  L 190,120  L 191,120  L 191,119  Z  " style="fill:rgb(0, 0, 0); fill-opacity:0.851; stroke:none;" />
 <path d="  M 199,150  L 199,149  L 198,149  L 198,150  Z  " style="fill:rgb(0, 0, 0); fill-opacity:0.851; stroke:none;" />
 <path d="  M 202,144  L 201,144  L 201,145  L 202,145  Z  " style="fill:rgb(0, 0, 0); fill-opacity:0.851; stroke:none;" />
 <path d="  M 44,232  L 43,232  L 43,233  L 44,233  Z  " style="fill:rgb(0, 0, 0); fill-opacity:0.380; stroke:none;" />
 <path d="  M 45,223  L 44,223  L 44,224  L 45,224  Z  " style="fill:rgb(0, 0, 0); fill-opacity:0.243; stroke:none;" />
 <path d="  M 45,225  L 45,224  L 44,224  L 44,225  Z  " style="fill:rgb(0, 0, 0); fill-opacity:0.925; stroke:none;" />
 <path d="  M 205,167  L 205,168  L 206,168  L 206,167  Z  " style="fill:rgb(0, 0, 0); fill-opacity:0.925; stroke:none;" />
 <path d="  M 211,168  L 210,168  L 210,169  L 211,169  Z  " style="fill:rgb(0, 0, 0); fill-opacity:0.925; stroke:none;" />
 <path d="  M 44,232  L 44,233  L 45,233  L 45,232  Z  " style="fill:rgb(0, 0, 0); fill-opacity:0.988; stroke:none;" />
 <path d="  M 49,236  L 48,236  L 48,237  L 49,237  Z  " style="fill:rgb(0, 0, 0); fill-opacity:0.988; stroke:none;" />
 <path d="  M 65,240  L 65,239  L 64,239  L 64,240  Z  " style="fill:rgb(0, 0, 0); fill-opacity:0.988; stroke:none;" />
 <path d="  M 68,239  L 69,239  L 69,238  L 68,238  Z  " style="fill:rgb(0, 0, 0); fill-opacity:0.988; stroke:none;" />
 <path d="  M 75,239  L 75,238  L 74,238  L 74,239  Z  " style="fill:rgb(0, 0, 0); fill-opacity:0.988; stroke:none;" />
 <path d="  M 200,151  L 200,150  L 199,150  L 199,151  Z  " style="fill:rgb(0, 0, 0); fill-opacity:0.988; stroke:none;" />
 <path d="  M 203,150  L 204,150  L 204,149  L 203,149  Z  " style="fill:rgb(0, 0, 0); fill-opacity:0.988; stroke:none;" />
 <path d="  M 214,184  L 215,184  L 215,183  L 214,183  Z  " style="fill:rgb(0, 0, 0); fill-opacity:0.988; stroke:none;" />
 <path d="  M 45,233  L 44,233  L 44,234  L 45,234  Z  " style="fill:rgb(0, 0, 0); fill-opacity:0.431; stroke:none;" />
 <path d="  M 46,235  L 46,234  L 45,234  L 45,235  Z  " style="fill:rgb(0, 0, 0); fill-opacity:0.431; stroke:none;" />
 <path d="  M 46,236  L 47,236  L 47,235  L 46,235  Z  " style="fill:rgb(0, 0, 0); fill-opacity:0.431; stroke:none;" />
 <path d="  M 48,237  L 48,236  L 47,236  L 47,237  Z  " style="fill:rgb(0, 0, 0); fill-opacity:0.431; stroke:none;" />
 <path d="  M 49,229  L 48,229  L 48,230  L 49,230  Z  " style="fill:rgb(0, 0, 0); fill-opacity:0.431; stroke:none;" />
 <path d="  M 49,231  L 50,231  L 50,230  L 49,230  Z  " style="fill:rgb(0, 0, 0); fill-opacity:0.431; stroke:none;" />
 <path d="  M 51,232  L 51,231  L 50,231  L 50,232  Z  " style="fill:rgb(0, 0, 0); fill-opacity:0.431; stroke:none;" />
 <path d="  M 51,233  L 52,233  L 52,232  L 51,232  Z  " style="fill:rgb(0, 0, 0); fill-opacity:0.431; stroke:none;" />
 <path d="  M 199,205  L 198,205  L 198,206  L 199,206  Z  " style="fill:rgb(0, 0, 0); fill-opacity:0.431; stroke:none;" />
 <path d="  M 203,209  L 202,209  L 202,210  L 203,210  Z  " style="fill:rgb(0, 0, 0); fill-opacity:0.431; stroke:none;" />
 <path d="  M 205,208  L 205,207  L 204,207  L 204,208  Z  " style="fill:rgb(0, 0, 0); fill-opacity:0.431; stroke:none;" />
 <path d="  M 47,228  L 47,227  L 46,227  L 46,228  Z  " style="fill:rgb(0, 0, 0); fill-opacity:0.435; stroke:none;" />
 <path d="  M 48,237  L 48,238  L 49,238  L 49,237  Z  " style="fill:rgb(0, 0, 0); fill-opacity:0.565; stroke:none;" />
 <path d="  M 50,238  L 49,238  L 49,239  L 50,239  Z  " style="fill:rgb(0, 0, 0); fill-opacity:0.565; stroke:none;" />
 <path d="  M 201,203  L 202,203  L 202,202  L 201,202  Z  " style="fill:rgb(0, 0, 0); fill-opacity:0.565; stroke:none;" />
 <path d="  M 204,200  L 204,201  L 205,201  L 205,200  Z  " style="fill:rgb(0, 0, 0); fill-opacity:0.565; stroke:none;" />
 <path d="  M 54,234  L 53,234  L 53,235  L 54,235  Z  " style="fill:rgb(0, 0, 0); fill-opacity:0.373; stroke:none;" />
 <path d="  M 190,119  L 191,119  L 191,118  L 190,118  Z  " style="fill:rgb(0, 0, 0); fill-opacity:0.373; stroke:none;" />
 <path d="  M 201,144  L 202,144  L 202,143  L 201,143  Z  " style="fill:rgb(0, 0, 0); fill-opacity:0.373; stroke:none;" />
 <path d="  M 202,201  L 202,202  L 203,202  L 203,201  Z  " style="fill:rgb(0, 0, 0); fill-opacity:0.373; stroke:none;" />
 <path d="  M 206,200  L 206,199  L 205,199  L 205,200  Z  " style="fill:rgb(0, 0, 0); fill-opacity:0.373; stroke:none;" />
 <path d="  M 205,207  L 206,207  L 206,206  L 205,206  Z  " style="fill:rgb(0, 0, 0); fill-opacity:0.373; stroke:none;" />
 <path d="  M 54,241  L 53,241  L 53,242  L 54,242  Z  " style="fill:rgb(0, 0, 0); fill-opacity:0.278; stroke:none;" />
 <path d="  M 56,236  L 56,237  L 57,237  L 57,236  Z  " style="fill:rgb(0, 0, 0); fill-opacity:0.278; stroke:none;" />
 <path d="  M 55,243  L 56,243  L 56,242  L 55,242  Z  " style="fill:rgb(0, 0, 0); fill-opacity:0.365; stroke:none;" />
 <path d="  M 213,197  L 212,197  L 212,198  L 213,198  Z  " style="fill:rgb(0, 0, 0); fill-opacity:0.365; stroke:none;" />
 <path d="  M 58,237  L 58,236  L 57,236  L 57,237  Z  " style="fill:rgb(0, 0, 0); fill-opacity:0.153; stroke:none;" />
 <path d="  M 202,157  L 201,157  L 201,158  L 202,158  Z  " style="fill:rgb(0, 0, 0); fill-opacity:0.153; stroke:none;" />
 <path d="  M 204,166  L 204,167  L 205,167  L 205,166  Z  " style="fill:rgb(0, 0, 0); fill-opacity:0.153; stroke:none;" />
 <path d="  M 208,158  L 208,157  L 207,157  L 207,158  Z  " style="fill:rgb(0, 0, 0); fill-opacity:0.153; stroke:none;" />
 <path d="  M 212,170  L 212,169  L 211,169  L 211,170  Z  " style="fill:rgb(0, 0, 0); fill-opacity:0.153; stroke:none;" />
 <path d="  M 215,189  L 215,190  L 216,190  L 216,189  Z  " style="fill:rgb(0, 0, 0); fill-opacity:0.153; stroke:none;" />
 <path d="  M 57,242  L 57,243  L 58,243  L 58,242  Z  " style="fill:rgb(0, 0, 0); fill-opacity:0.333; stroke:none;" />
 <path d="  M 208,178  L 207,178  L 207,179  L 208,179  Z  " style="fill:rgb(0, 0, 0); fill-opacity:0.333; stroke:none;" />
 <path d="  M 213,176  L 213,175  L 212,175  L 212,176  Z  " style="fill:rgb(0, 0, 0); fill-opacity:0.333; stroke:none;" />
 <path d="  M 59,242  L 58,242  L 58,243  L 59,243  Z  " style="fill:rgb(0, 0, 0); fill-opacity:0.741; stroke:none;" />
 <path d="  M 60,238  L 60,237  L 59,237  L 59,238  Z  " style="fill:rgb(0, 0, 0); fill-opacity:0.710; stroke:none;" />
 <path d="  M 205,168  L 205,169  L 206,169  L 206,168  Z  " style="fill:rgb(0, 0, 0); fill-opacity:0.710; stroke:none;" />
 <path d="  M 208,177  L 207,177  L 207,178  L 208,178  Z  " style="fill:rgb(0, 0, 0); fill-opacity:0.710; stroke:none;" />
 <path d="  M 211,167  L 210,167  L 210,168  L 211,168  Z  " style="fill:rgb(0, 0, 0); fill-opacity:0.710; stroke:none;" />
 <path d="  M 60,238  L 61,238  L 61,237  L 60,237  Z  " style="fill:rgb(0, 0, 0); fill-opacity:0.392; stroke:none;" />
 <path d="  M 61,244  L 62,244  L 62,243  L 61,243  Z  " style="fill:rgb(0, 0, 0); fill-opacity:0.878; stroke:none;" />
 <path d="  M 194,213  L 194,212  L 193,212  L 193,213  Z  " style="fill:rgb(0, 0, 0); fill-opacity:0.878; stroke:none;" />
 <path d="  M 195,214  L 195,213  L 194,213  L 194,214  Z  " style="fill:rgb(0, 0, 0); fill-opacity:0.878; stroke:none;" />
 <path d="  M 195,214  L 195,215  L 196,215  L 196,214  Z  " style="fill:rgb(0, 0, 0); fill-opacity:0.878; stroke:none;" />
 <path d="  M 209,190  L 209,191  L 210,191  L 210,190  Z  " style="fill:rgb(0, 0, 0); fill-opacity:0.878; stroke:none;" />
 <path d="  M 62,245  L 63,245  L 63,244  L 62,244  Z  " style="fill:rgb(0, 0, 0); fill-opacity:0.545; stroke:none;" />
 <path d="  M 66,239  L 65,239  L 65,240  L 66,240  Z  " style="fill:rgb(0, 0, 0); fill-opacity:0.953; stroke:none;" />
 <path d="  M 204,162  L 204,161  L 203,161  L 203,162  Z  " style="fill:rgb(0, 0, 0); fill-opacity:0.953; stroke:none;" />
 <path d="  M 205,165  L 205,164  L 204,164  L 204,165  Z  " style="fill:rgb(0, 0, 0); fill-opacity:0.953; stroke:none;" />
 <path d="  M 68,238  L 69,238  L 69,236  L 68,236  Z  " style="fill:rgb(0, 0, 0); fill-opacity:0.588; stroke:none;" />
 <path d="  M 73,241  L 73,242  L 74,242  L 74,241  Z  " style="fill:rgb(0, 0, 0); fill-opacity:0.588; stroke:none;" />
 <path d="  M 74,241  L 75,241  L 75,240  L 74,240  Z  " style="fill:rgb(0, 0, 0); fill-opacity:0.588; stroke:none;" />
 <path d="  M 76,238  L 76,237  L 75,237  L 75,238  Z  " style="fill:rgb(0, 0, 0); fill-opacity:0.588; stroke:none;" />
 <path d="  M 209,183  L 208,183  L 208,184  L 209,184  Z  " style="fill:rgb(0, 0, 0); fill-opacity:0.588; stroke:none;" />
 <path d="  M 211,202  L 212,202  L 212,201  L 211,201  Z  " style="fill:rgb(0, 0, 0); fill-opacity:0.588; stroke:none;" />
 <path d="  M 71,233  L 70,233  L 70,234  L 71,234  Z  " style="fill:rgb(0, 0, 0); fill-opacity:0.976; stroke:none;" />
 <path d="  M 73,241  L 74,241  L 74,240  L 73,240  Z  " style="fill:rgb(0, 0, 0); fill-opacity:0.976; stroke:none;" />
 <path d="  M 210,185  L 210,184  L 209,184  L 209,185  Z  " style="fill:rgb(0, 0, 0); fill-opacity:0.976; stroke:none;" />
 <path d="  M 210,192  L 210,191  L 209,191  L 209,192  Z  " style="fill:rgb(0, 0, 0); fill-opacity:0.976; stroke:none;" />
 <path d="  M 210,202  L 211,202  L 211,201  L 210,201  Z  " style="fill:rgb(0, 0, 0); fill-opacity:0.976; stroke:none;" />
 <path d="  M 70,244  L 70,245  L 71,245  L 71,244  Z  " style="fill:rgb(0, 0, 0); fill-opacity:0.949; stroke:none;" />
 <path d="  M 73,243  L 73,242  L 72,242  L 72,243  Z  " style="fill:rgb(0, 0, 0); fill-opacity:0.949; stroke:none;" />
 <path d="  M 208,182  L 209,182  L 209,181  L 208,181  Z  " style="fill:rgb(0, 0, 0); fill-opacity:0.949; stroke:none;" />
 <path d="  M 214,184  L 214,185  L 215,185  L 215,184  Z  " style="fill:rgb(0, 0, 0); fill-opacity:0.949; stroke:none;" />
 <path d="  M 180,103  L 180,102  L 179,102  L 179,103  Z  " style="fill:rgb(0, 0, 0); fill-opacity:0.961; stroke:none;" />
 <path d="  M 184,103  L 184,104  L 185,104  L 185,103  Z  " style="fill:rgb(0, 0, 0); fill-opacity:0.961; stroke:none;" />
 <path d="  M 208,196  L 208,195  L 207,195  L 207,196  Z  " style="fill:rgb(0, 0, 0); fill-opacity:0.961; stroke:none;" />
 <path d="  M 179,103  L 179,104  L 180,104  L 180,103  Z  " style="fill:rgb(0, 0, 0); fill-opacity:0.929; stroke:none;" />
 <path d="  M 184,102  L 184,103  L 185,103  L 185,102  Z  " style="fill:rgb(0, 0, 0); fill-opacity:0.929; stroke:none;" />
 <path d="  M 180,109  L 181,109  L 181,108  L 180,108  Z  " style="fill:rgb(0, 0, 0); fill-opacity:0.412; stroke:none;" />
 <path d="  M 186,106  L 186,105  L 185,105  L 185,106  Z  " style="fill:rgb(0, 0, 0); fill-opacity:0.412; stroke:none;" />
 <path d="  M 207,174  L 206,174  L 206,175  L 207,175  Z  " style="fill:rgb(0, 0, 0); fill-opacity:0.412; stroke:none;" />
 <path d="  M 211,172  L 212,172  L 212,171  L 211,171  Z  " style="fill:rgb(0, 0, 0); fill-opacity:0.412; stroke:none;" />
 <path d="  M 181,110  L 181,109  L 180,109  L 180,110  Z  " style="fill:rgb(0, 0, 0); fill-opacity:0.059; stroke:none;" />
 <path d="  M 181,115  L 182,115  L 182,114  L 181,114  Z  " style="fill:rgb(0, 0, 0); fill-opacity:0.059; stroke:none;" />
 <path d="  M 186,110  L 187,110  L 187,109  L 186,109  Z  " style="fill:rgb(0, 0, 0); fill-opacity:0.059; stroke:none;" />
 <path d="  M 206,170  L 205,170  L 205,171  L 206,171  Z  " style="fill:rgb(0, 0, 0); fill-opacity:0.059; stroke:none;" />
 <path d="  M 211,171  L 212,171  L 212,170  L 211,170  Z  " style="fill:rgb(0, 0, 0); fill-opacity:0.059; stroke:none;" />
 <path d="  M 182,110  L 181,110  L 181,111  L 182,111  Z  " style="fill:rgb(0, 0, 0); fill-opacity:0.910; stroke:none;" />
 <path d="  M 182,114  L 182,115  L 183,115  L 183,114  Z  " style="fill:rgb(0, 0, 0); fill-opacity:0.910; stroke:none;" />
 <path d="  M 211,173  L 211,174  L 212,174  L 212,173  Z  " style="fill:rgb(0, 0, 0); fill-opacity:0.910; stroke:none;" />
 <path d="  M 181,113  L 182,113  L 182,112  L 181,112  Z  " style="fill:rgb(0, 0, 0); fill-opacity:0.780; stroke:none;" />
 <path d="  M 186,112  L 187,112  L 187,111  L 186,111  Z  " style="fill:rgb(0, 0, 0); fill-opacity:0.780; stroke:none;" />
 <path d="  M 209,181  L 209,180  L 208,180  L 208,181  Z  " style="fill:rgb(0, 0, 0); fill-opacity:0.780; stroke:none;" />
 <path d="  M 214,195  L 214,194  L 213,194  L 213,195  Z  " style="fill:rgb(0, 0, 0); fill-opacity:0.780; stroke:none;" />
 <path d="  M 182,113  L 181,113  L 181,114  L 182,114  Z  " style="fill:rgb(0, 0, 0); fill-opacity:0.318; stroke:none;" />
 <path d="  M 187,110  L 186,110  L 186,111  L 187,111  Z  " style="fill:rgb(0, 0, 0); fill-opacity:0.318; stroke:none;" />
 <path d="  M 208,205  L 209,205  L 209,204  L 208,204  Z  " style="fill:rgb(0, 0, 0); fill-opacity:0.318; stroke:none;" />
 <path d="  M 185,118  L 184,118  L 184,119  L 185,119  Z  " style="fill:rgb(0, 0, 0); fill-opacity:0.196; stroke:none;" />
 <path d="  M 190,115  L 189,115  L 189,116  L 190,116  Z  " style="fill:rgb(0, 0, 0); fill-opacity:0.196; stroke:none;" />
 <path d="  M 195,143  L 195,144  L 196,144  L 196,143  Z  " style="fill:rgb(0, 0, 0); fill-opacity:0.196; stroke:none;" />
 <path d="  M 201,140  L 200,140  L 200,141  L 201,141  Z  " style="fill:rgb(0, 0, 0); fill-opacity:0.196; stroke:none;" />
 <path d="  M 186,104  L 185,104  L 185,105  L 186,105  Z  " style="fill:rgb(0, 0, 0); fill-opacity:0.055; stroke:none;" />
 <path d="  M 211,166  L 211,165  L 210,165  L 210,166  Z  " style="fill:rgb(0, 0, 0); fill-opacity:0.055; stroke:none;" />
 <path d="  M 185,108  L 186,108  L 186,107  L 185,107  Z  " style="fill:rgb(0, 0, 0); fill-opacity:0.890; stroke:none;" />
 <path d="  M 186,120  L 186,119  L 185,119  L 185,120  Z  " style="fill:rgb(0, 0, 0); fill-opacity:0.816; stroke:none;" />
 <path d="  M 189,115  L 189,114  L 188,114  L 188,115  Z  " style="fill:rgb(0, 0, 0); fill-opacity:0.816; stroke:none;" />
 <path d="  M 193,137  L 192,137  L 192,138  L 193,138  Z  " style="fill:rgb(0, 0, 0); fill-opacity:0.816; stroke:none;" />
 <path d="  M 197,144  L 196,144  L 196,145  L 197,145  Z  " style="fill:rgb(0, 0, 0); fill-opacity:0.816; stroke:none;" />
 <path d="  M 198,136  L 197,136  L 197,137  L 198,137  Z  " style="fill:rgb(0, 0, 0); fill-opacity:0.816; stroke:none;" />
 <path d="  M 200,140  L 200,139  L 199,139  L 199,140  Z  " style="fill:rgb(0, 0, 0); fill-opacity:0.816; stroke:none;" />
 <path d="  M 185,121  L 186,121  L 186,120  L 185,120  Z  " style="fill:rgb(0, 0, 0); fill-opacity:0.369; stroke:none;" />
 <path d="  M 197,146  L 197,145  L 196,145  L 196,146  Z  " style="fill:rgb(0, 0, 0); fill-opacity:0.369; stroke:none;" />
 <path d="  M 206,170  L 206,169  L 205,169  L 205,170  Z  " style="fill:rgb(0, 0, 0); fill-opacity:0.369; stroke:none;" />
 <path d="  M 211,167  L 211,166  L 210,166  L 210,167  Z  " style="fill:rgb(0, 0, 0); fill-opacity:0.369; stroke:none;" />
 <path d="  M 189,113  L 188,113  L 188,114  L 189,114  Z  " style="fill:rgb(0, 0, 0); fill-opacity:0.251; stroke:none;" />
 <path d="  M 200,139  L 200,138  L 199,138  L 199,139  Z  " style="fill:rgb(0, 0, 0); fill-opacity:0.251; stroke:none;" />
 <path d="  M 190,128  L 189,128  L 189,129  L 190,129  Z  " style="fill:rgb(0, 0, 0); fill-opacity:0.941; stroke:none;" />
 <path d="  M 191,135  L 191,136  L 192,136  L 192,135  Z  " style="fill:rgb(0, 0, 0); fill-opacity:0.941; stroke:none;" />
 <path d="  M 195,130  L 194,130  L 194,131  L 195,131  Z  " style="fill:rgb(0, 0, 0); fill-opacity:0.941; stroke:none;" />
 <path d="  M 208,182  L 208,183  L 209,183  L 209,182  Z  " style="fill:rgb(0, 0, 0); fill-opacity:0.941; stroke:none;" />
 <path d="  M 189,130  L 190,130  L 190,129  L 189,129  Z  " style="fill:rgb(0, 0, 0); fill-opacity:0.631; stroke:none;" />
 <path d="  M 194,129  L 194,130  L 195,130  L 195,129  Z  " style="fill:rgb(0, 0, 0); fill-opacity:0.631; stroke:none;" />
 <path d="  M 189,131  L 189,132  L 190,132  L 190,131  Z  " style="fill:rgb(0, 0, 0); fill-opacity:0.133; stroke:none;" />
 <path d="  M 192,123  L 193,123  L 193,122  L 192,122  Z  " style="fill:rgb(0, 0, 0); fill-opacity:0.133; stroke:none;" />
 <path d="  M 191,121  L 192,121  L 192,120  L 191,120  Z  " style="fill:rgb(0, 0, 0); fill-opacity:0.200; stroke:none;" />
 <path d="  M 202,145  L 202,146  L 203,146  L 203,145  Z  " style="fill:rgb(0, 0, 0); fill-opacity:0.200; stroke:none;" />
 <path d="  M 196,208  L 197,208  L 197,207  L 196,207  Z  " style="fill:rgb(0, 0, 0); fill-opacity:0.882; stroke:none;" />
 <path d="  M 201,211  L 202,211  L 202,210  L 201,210  Z  " style="fill:rgb(0, 0, 0); fill-opacity:0.882; stroke:none;" />
 <path d="  M 198,207  L 198,206  L 197,206  L 197,207  Z  " style="fill:rgb(0, 0, 0); fill-opacity:0.765; stroke:none;" />
 <path d="  M 198,138  L 199,138  L 199,137  L 198,137  Z  " style="fill:rgb(0, 0, 0); fill-opacity:0.325; stroke:none;" />
 <path d="  M 198,138  L 198,139  L 199,139  L 199,138  Z  " style="fill:rgb(0, 0, 0); fill-opacity:0.788; stroke:none;" />
 <path d="  M 202,159  L 203,159  L 203,158  L 202,158  Z  " style="fill:rgb(0, 0, 0); fill-opacity:0.788; stroke:none;" />
 <path d="  M 206,157  L 207,157  L 207,156  L 206,156  Z  " style="fill:rgb(0, 0, 0); fill-opacity:0.788; stroke:none;" />
 <path d="  M 200,205  L 200,204  L 199,204  L 199,205  Z  " style="fill:rgb(0, 0, 0); fill-opacity:0.529; stroke:none;" />
 <path d="  M 203,208  L 203,209  L 204,209  L 204,208  Z  " style="fill:rgb(0, 0, 0); fill-opacity:0.529; stroke:none;" />
 <path d="  M 201,155  L 201,154  L 200,154  L 200,155  Z  " style="fill:rgb(0, 0, 0); fill-opacity:0.227; stroke:none;" />
 <path d="  M 204,149  L 204,150  L 205,150  L 205,149  Z  " style="fill:rgb(0, 0, 0); fill-opacity:0.227; stroke:none;" />
 <path d="  M 203,160  L 203,159  L 202,159  L 202,160  Z  " style="fill:rgb(0, 0, 0); fill-opacity:0.471; stroke:none;" />
 <path d="  M 207,155  L 206,155  L 206,156  L 207,156  Z  " style="fill:rgb(0, 0, 0); fill-opacity:0.471; stroke:none;" />
 <path d="  M 209,165  L 210,165  L 210,164  L 209,164  Z  " style="fill:rgb(0, 0, 0); fill-opacity:0.471; stroke:none;" />
 <path d="  M 203,160  L 202,160  L 202,161  L 203,161  Z  " style="fill:rgb(0, 0, 0); fill-opacity:0.282; stroke:none;" />
 <path d="  M 204,163  L 203,163  L 203,164  L 204,164  Z  " style="fill:rgb(0, 0, 0); fill-opacity:0.282; stroke:none;" />
 <path d="  M 209,161  L 209,160  L 208,160  L 208,161  Z  " style="fill:rgb(0, 0, 0); fill-opacity:0.282; stroke:none;" />
 <path d="  M 210,163  L 209,163  L 209,164  L 210,164  Z  " style="fill:rgb(0, 0, 0); fill-opacity:0.282; stroke:none;" />
 <path d="  M 204,148  L 203,148  L 203,149  L 204,149  Z  " style="fill:rgb(0, 0, 0); fill-opacity:0.655; stroke:none;" />
 <path d="  M 204,166  L 205,166  L 205,165  L 204,165  Z  " style="fill:rgb(0, 0, 0); fill-opacity:0.549; stroke:none;" />
 <path d="  M 215,194  L 215,193  L 214,193  L 214,194  Z  " style="fill:rgb(0, 0, 0); fill-opacity:0.549; stroke:none;" />
 <path d="  M 205,152  L 206,152  L 206,151  L 205,151  Z  " style="fill:rgb(0, 0, 0); fill-opacity:0.235; stroke:none;" />
 <path d="  M 208,158  L 207,158  L 207,159  L 208,159  Z  " style="fill:rgb(0, 0, 0); fill-opacity:0.553; stroke:none;" />
 <path d="  M 208,204  L 207,204  L 207,205  L 208,205  Z  " style="fill:rgb(0, 0, 0); fill-opacity:0.965; stroke:none;" />
 <path d="  M 210,165  L 209,165  L 209,166  L 210,166  Z  " style="fill:rgb(0, 0, 0); fill-opacity:0.965; stroke:none;" />
 <path d="  M 210,170  L 211,170  L 211,169  L 210,169  Z  " style="fill:rgb(0, 0, 0); fill-opacity:0.965; stroke:none;" />
 <path d="  M 208,162  L 209,162  L 209,161  L 208,161  Z  " style="fill:rgb(0, 0, 0); fill-opacity:0.722; stroke:none;" />
 <path d="  M 208,193  L 209,193  L 209,192  L 208,192  Z  " style="fill:rgb(0, 0, 0); fill-opacity:0.302; stroke:none;" />
 <path d="  M 213,196  L 214,196  L 214,195  L 213,195  Z  " style="fill:rgb(0, 0, 0); fill-opacity:0.302; stroke:none;" />
 <path d="  M 209,194  L 209,193  L 208,193  L 208,194  Z  " style="fill:rgb(0, 0, 0); fill-opacity:0.886; stroke:none;" />
 <path d="  M 211,203  L 211,202  L 210,202  L 210,203  Z  " style="fill:rgb(0, 0, 0); fill-opacity:0.522; stroke:none;" />
 <path d="  M 211,201  L 212,201  L 212,200  L 211,200  Z  " style="fill:rgb(0, 0, 0); fill-opacity:0.812; stroke:none;" />
 <path d="  M 214,178  L 213,178  L 213,179  L 214,179  Z  " style="fill:rgb(0, 0, 0); fill-opacity:0.576; stroke:none;" />
 <path d="  M 214,192  L 214,193  L 215,193  L 215,192  Z  " style="fill:rgb(0, 0, 0); fill-opacity:0.616; stroke:none;" />
</svg>
